<?xml version="1.0" encoding="UTF-8"?>
<svg version="1.1" xmlns="http://www.w3.org/2000/svg" width="512" height="512">
<path d="M0 0 C2.10052024 1.94050688 4.17925573 3.90277572 6.25 5.875 C7.148396 6.73037354 7.148396 6.73037354 8.06494141 7.60302734 C16.95711736 16.13263199 24.95107735 24.95070671 32.25 34.875 C32.88929443 35.73109863 32.88929443 35.73109863 33.54150391 36.60449219 C40.05799189 45.34738527 45.83579021 54.41451241 51.25 63.875 C51.90613281 64.99777344 52.56226563 66.12054688 53.23828125 67.27734375 C67.46304627 92.61966058 76.10098331 121.20513238 80.25 149.875 C80.36714355 150.67228516 80.48428711 151.46957031 80.60498047 152.29101562 C89.65839898 217.02363057 71.21986412 282.90162173 32.25 334.875 C29.34477475 338.62951633 26.35150374 342.28137574 23.25 345.875 C22.59257812 346.64328125 21.93515625 347.4115625 21.2578125 348.203125 C10.02118049 361.00864525 -2.00599955 372.8010276 -15.75 382.875 C-16.60392334 383.51211914 -16.60392334 383.51211914 -17.47509766 384.16210938 C-26.21950273 390.68035212 -35.28752338 396.45965189 -44.75 401.875 C-45.87277344 402.53113281 -46.99554688 403.18726563 -48.15234375 403.86328125 C-73.49466058 418.08804627 -102.08013238 426.72598331 -130.75 430.875 C-131.54728516 430.99214355 -132.34457031 431.10928711 -133.16601562 431.22998047 C-197.89863057 440.28339898 -263.77662173 421.84486412 -315.75 382.875 C-319.50451633 379.96977475 -323.15637574 376.97650374 -326.75 373.875 C-327.90242188 372.88886719 -327.90242188 372.88886719 -329.078125 371.8828125 C-341.88364525 360.64618049 -353.6760276 348.61900045 -363.75 334.875 C-364.38711914 334.02107666 -364.38711914 334.02107666 -365.03710938 333.14990234 C-371.55535212 324.40549727 -377.33465189 315.33747662 -382.75 305.875 C-383.40613281 304.75222656 -384.06226563 303.62945312 -384.73828125 302.47265625 C-398.96304627 277.13033942 -407.60098331 248.54486762 -411.75 219.875 C-411.86714355 219.07771484 -411.98428711 218.28042969 -412.10498047 217.45898438 C-421.08940847 153.21965666 -402.91492635 87.82529899 -364.75 35.875 C-358.57292336 27.78522451 -351.76557429 20.24102851 -344.75 12.875 C-344.17975098 12.27606934 -343.60950195 11.67713867 -343.02197266 11.06005859 C-334.49236801 2.16788264 -325.67429329 -5.82607735 -315.75 -13.125 C-315.17926758 -13.55119629 -314.60853516 -13.97739258 -314.02050781 -14.41650391 C-305.27761473 -20.93299189 -296.21048759 -26.71079021 -286.75 -32.125 C-285.62722656 -32.78113281 -284.50445312 -33.43726562 -283.34765625 -34.11328125 C-258.00533942 -48.33804627 -229.41986762 -56.97598331 -200.75 -61.125 C-199.95271484 -61.24214355 -199.15542969 -61.35928711 -198.33398438 -61.47998047 C-126.89221899 -71.47173195 -53.34144633 -48.09242103 0 0 Z " fill="#FEFEFE" transform="translate(421.75,71.125)"/>
<path d="M0 0 C2.10052024 1.94050688 4.17925573 3.90277572 6.25 5.875 C7.148396 6.73037354 7.148396 6.73037354 8.06494141 7.60302734 C16.95711736 16.13263199 24.95107735 24.95070671 32.25 34.875 C32.88929443 35.73109863 32.88929443 35.73109863 33.54150391 36.60449219 C40.05799189 45.34738527 45.83579021 54.41451241 51.25 63.875 C51.90613281 64.99777344 52.56226563 66.12054688 53.23828125 67.27734375 C67.46304627 92.61966058 76.10098331 121.20513238 80.25 149.875 C80.36714355 150.67228516 80.48428711 151.46957031 80.60498047 152.29101562 C89.65839898 217.02363057 71.21986412 282.90162173 32.25 334.875 C29.34477475 338.62951633 26.35150374 342.28137574 23.25 345.875 C22.59257812 346.64328125 21.93515625 347.4115625 21.2578125 348.203125 C10.02118049 361.00864525 -2.00599955 372.8010276 -15.75 382.875 C-16.60392334 383.51211914 -16.60392334 383.51211914 -17.47509766 384.16210938 C-26.21950273 390.68035212 -35.28752338 396.45965189 -44.75 401.875 C-45.87277344 402.53113281 -46.99554688 403.18726563 -48.15234375 403.86328125 C-73.49466058 418.08804627 -102.08013238 426.72598331 -130.75 430.875 C-131.54728516 430.99214355 -132.34457031 431.10928711 -133.16601562 431.22998047 C-197.89863057 440.28339898 -263.77662173 421.84486412 -315.75 382.875 C-319.50451633 379.96977475 -323.15637574 376.97650374 -326.75 373.875 C-327.90242188 372.88886719 -327.90242188 372.88886719 -329.078125 371.8828125 C-341.88364525 360.64618049 -353.6760276 348.61900045 -363.75 334.875 C-364.38711914 334.02107666 -364.38711914 334.02107666 -365.03710938 333.14990234 C-371.55535212 324.40549727 -377.33465189 315.33747662 -382.75 305.875 C-383.40613281 304.75222656 -384.06226563 303.62945312 -384.73828125 302.47265625 C-398.96304627 277.13033942 -407.60098331 248.54486762 -411.75 219.875 C-411.86714355 219.07771484 -411.98428711 218.28042969 -412.10498047 217.45898438 C-421.08940847 153.21965666 -402.91492635 87.82529899 -364.75 35.875 C-358.57292336 27.78522451 -351.76557429 20.24102851 -344.75 12.875 C-344.17975098 12.27606934 -343.60950195 11.67713867 -343.02197266 11.06005859 C-334.49236801 2.16788264 -325.67429329 -5.82607735 -315.75 -13.125 C-315.17926758 -13.55119629 -314.60853516 -13.97739258 -314.02050781 -14.41650391 C-305.27761473 -20.93299189 -296.21048759 -26.71079021 -286.75 -32.125 C-285.62722656 -32.78113281 -284.50445312 -33.43726562 -283.34765625 -34.11328125 C-258.00533942 -48.33804627 -229.41986762 -56.97598331 -200.75 -61.125 C-199.95271484 -61.24214355 -199.15542969 -61.35928711 -198.33398438 -61.47998047 C-126.89221899 -71.47173195 -53.34144633 -48.09242103 0 0 Z M-203.75 -8.125 C-204.58192871 -7.9693457 -205.41385742 -7.81369141 -206.27099609 -7.65332031 C-243.85509722 -0.45131815 -276.06467559 19.08532678 -303.75 44.875 C-304.53890625 45.59816406 -305.3278125 46.32132813 -306.140625 47.06640625 C-327.52299431 67.44863248 -343.25033739 95.08759739 -352.75 122.875 C-353.08386719 123.85082031 -353.41773438 124.82664063 -353.76171875 125.83203125 C-354.90062495 129.48283334 -355.85411173 133.15913601 -356.75 136.875 C-357.07581055 138.18355957 -357.07581055 138.18355957 -357.40820312 139.51855469 C-363.60301598 165.23824426 -364.6274306 193.90988955 -359.15576172 219.90185547 C-358.76097047 221.8216526 -358.44373584 223.75688732 -358.12890625 225.69140625 C-351.71150442 263.27904552 -330.67773787 296.73705655 -304.75 323.875 C-304.07582031 324.60203125 -303.40164063 325.3290625 -302.70703125 326.078125 C-296.67451232 332.40648174 -289.71653271 337.62785805 -282.75 342.875 C-281.91597656 343.5040625 -281.08195312 344.133125 -280.22265625 344.78125 C-257.27558367 361.4129744 -231.14864941 372.44859232 -203.4375 378.0625 C-202.6137085 378.22951416 -201.78991699 378.39652832 -200.94116211 378.56860352 C-190.06395962 380.69245081 -179.37092917 381.15011698 -168.3125 381.1875 C-167.54420868 381.19045074 -166.77591736 381.19340149 -165.98434448 381.19644165 C-112.80249234 381.24264057 -64.89847113 360.32225552 -26.75 323.875 C-26.02296875 323.20082031 -25.2959375 322.52664063 -24.546875 321.83203125 C-18.21851826 315.79951232 -12.99714195 308.84153271 -7.75 301.875 C-7.1209375 301.04097656 -6.491875 300.20695312 -5.84375 299.34765625 C18.44314982 265.83860815 30.45896223 225.7312311 30.5 184.5625 C30.50100708 183.85801727 30.50201416 183.15353455 30.50305176 182.42770386 C30.49144452 170.36590787 29.62126096 158.71597337 27.25 146.875 C27.04117188 145.78590332 27.04117188 145.78590332 26.828125 144.67480469 C16.83233901 93.70092381 -15.01433702 49.56891917 -57.625 20.6875 C-65.67169638 15.34095712 -73.96342983 10.87180396 -82.75 6.875 C-84.52310547 6.06095703 -84.52310547 6.06095703 -86.33203125 5.23046875 C-122.98701426 -11.01949566 -164.33180838 -15.9257843 -203.75 -8.125 Z " fill="#259CD3" transform="translate(421.75,71.125)"/>
<path d="M0 0 C0.97277893 -0.00012085 1.94555786 -0.0002417 2.94781494 -0.00036621 C17.85856873 0.02601527 32.09091892 0.7614837 46.625 4.375 C47.87925781 4.67535156 49.13351562 4.97570313 50.42578125 5.28515625 C53.87158186 6.20324153 57.23624797 7.26514671 60.625 8.375 C62.19232184 8.85023486 63.76006351 9.32408637 65.328125 9.796875 C97.56294992 19.75341229 125.34695016 37.18847011 149.625 60.375 C150.55054688 61.24769531 151.47609375 62.12039062 152.4296875 63.01953125 C159.05113005 69.42526108 164.78585636 76.2473533 170.30175781 83.61181641 C171.55948034 85.28769686 172.8373063 86.94649506 174.1171875 88.60546875 C200.34567881 123.24904331 214.12582242 167.83260715 213.88574219 211.08398438 C213.87500484 213.37396697 213.88572637 215.66316558 213.8984375 217.953125 C213.95622364 274.37392451 188.88664034 327.01924954 149.5625 366.6875 C144.21087613 371.9755266 138.60043852 376.80598474 132.625 381.375 C132.00447754 381.85549805 131.38395508 382.33599609 130.74462891 382.83105469 C113.91015853 395.78064728 95.58413191 406.08368932 75.625 413.375 C74.84398926 413.66713379 74.06297852 413.95926758 73.25830078 414.26025391 C62.92238857 418.08648005 52.5513536 421.04494158 41.75 423.25 C40.27273438 423.55478271 40.27273438 423.55478271 38.765625 423.86572266 C-15.50334268 434.25707837 -73.87594882 421.22744085 -119.375 390.375 C-130.10408333 382.8437149 -139.97576291 374.49619097 -149.375 365.375 C-150.26832031 364.52164062 -151.16164062 363.66828125 -152.08203125 362.7890625 C-182.53076871 333.13545336 -203.12529514 291.67597393 -209.96508789 249.85766602 C-210.25465283 248.10389242 -210.57163368 246.35454055 -210.90795898 244.60913086 C-212.56109575 235.38934674 -212.71381972 226.3121951 -212.69067383 216.97583008 C-212.68753382 214.34087906 -212.7109863 211.70707723 -212.73632812 209.07226562 C-212.79463767 193.46823058 -210.88951621 178.1704315 -207.1875 163 C-206.9802832 162.14680176 -206.77306641 161.29360352 -206.55957031 160.41455078 C-197.37563856 124.251996 -178.65367608 91.54134827 -152.75537109 64.80224609 C-151.45637642 63.45913982 -150.17482609 62.09922458 -148.89453125 60.73828125 C-142.79734122 54.40237579 -136.16791465 48.98579658 -129.15429688 43.71435547 C-128.00988727 42.85290773 -126.87013499 41.98521894 -125.73632812 41.10986328 C-99.68972431 21.01699663 -67.63488959 8.18614651 -35.375 2.375 C-34.4159375 2.19694824 -33.456875 2.01889648 -32.46875 1.83544922 C-21.6633862 0.04680986 -10.92839049 -0.02082347 0 0 Z M-37.375 20.375 C-38.20692871 20.5306543 -39.03885742 20.68630859 -39.89599609 20.84667969 C-77.48009722 28.04868185 -109.68967559 47.58532678 -137.375 73.375 C-138.16390625 74.09816406 -138.9528125 74.82132813 -139.765625 75.56640625 C-161.14799431 95.94863248 -176.87533739 123.58759739 -186.375 151.375 C-186.70886719 152.35082031 -187.04273438 153.32664063 -187.38671875 154.33203125 C-188.52562495 157.98283334 -189.47911173 161.65913601 -190.375 165.375 C-190.70081055 166.68355957 -190.70081055 166.68355957 -191.03320312 168.01855469 C-197.22801598 193.73824426 -198.2524306 222.40988955 -192.78076172 248.40185547 C-192.38597047 250.3216526 -192.06873584 252.25688732 -191.75390625 254.19140625 C-185.33650442 291.77904552 -164.30273787 325.23705655 -138.375 352.375 C-137.70082031 353.10203125 -137.02664062 353.8290625 -136.33203125 354.578125 C-130.29951232 360.90648174 -123.34153271 366.12785805 -116.375 371.375 C-115.54097656 372.0040625 -114.70695312 372.633125 -113.84765625 373.28125 C-90.90058367 389.9129744 -64.77364941 400.94859232 -37.0625 406.5625 C-36.2387085 406.72951416 -35.41491699 406.89652832 -34.56616211 407.06860352 C-23.68895962 409.19245081 -12.99592917 409.65011698 -1.9375 409.6875 C-1.16920868 409.69045074 -0.40091736 409.69340149 0.39065552 409.69644165 C53.57250766 409.74264057 101.47652887 388.82225552 139.625 352.375 C140.35203125 351.70082031 141.0790625 351.02664063 141.828125 350.33203125 C148.15648174 344.29951232 153.37785805 337.34153271 158.625 330.375 C159.2540625 329.54097656 159.883125 328.70695312 160.53125 327.84765625 C184.81814982 294.33860815 196.83396223 254.2312311 196.875 213.0625 C196.87600708 212.35801727 196.87701416 211.65353455 196.87805176 210.92770386 C196.86644452 198.86590787 195.99626096 187.21597337 193.625 175.375 C193.41617188 174.28590332 193.41617188 174.28590332 193.203125 173.17480469 C183.20733901 122.20092381 151.36066298 78.06891917 108.75 49.1875 C100.70330362 43.84095712 92.41157017 39.37180396 83.625 35.375 C81.85189453 34.56095703 81.85189453 34.56095703 80.04296875 33.73046875 C43.38798574 17.48050434 2.04319162 12.5742157 -37.375 20.375 Z " fill="#1484BA" transform="translate(255.375,42.625)"/>
<path d="M0 0 C0.9590625 0.02320313 0.9590625 0.02320313 1.9375 0.046875 C2.576875 0.03140625 3.21625 0.0159375 3.875 0 C7.22170348 1.29304453 9.17639486 3.77420062 10.9375 6.796875 C11.60334455 9.73256658 11.53930365 12.55403939 11.45410156 15.55273438 C11.44814217 16.84169365 11.44814217 16.84169365 11.44206238 18.1566925 C11.43087987 20.0146578 11.4085547 21.87258266 11.37625885 23.7303009 C11.3275847 26.6732934 11.31356613 29.61461131 11.30926514 32.5579834 C11.2913679 40.92220925 11.21525129 49.2854202 11.10595703 57.64892578 C11.0414148 62.77193679 11.02056935 67.89365377 11.02611542 73.01704407 C11.01915199 74.96598337 10.99511347 76.91494039 10.95355988 78.8634491 C10.23881091 89.16663133 10.23881091 89.16663133 13.92625427 98.27404785 C16.22473252 99.80562637 18.37459979 100.79852148 20.9375 101.796875 C25.99586769 107.06262675 27.29065214 112.21208192 27.3125 119.421875 C27.21728167 121.54841761 27.10263251 123.67461647 26.9375 125.796875 C27.59105469 126.01988281 28.24460937 126.24289062 28.91796875 126.47265625 C32.96862553 128.24907624 36.53918345 130.59006193 40.25 132.984375 C45.93077138 136.62424531 51.62544064 140.23208277 57.3828125 143.75 C58.46135498 144.41233643 59.53989746 145.07467285 60.65112305 145.75708008 C62.76814681 147.05551063 64.88929623 148.34724305 67.01489258 149.6315918 C67.98837646 150.23140869 68.96186035 150.83122559 69.96484375 151.44921875 C70.82843506 151.97507568 71.69202637 152.50093262 72.58178711 153.04272461 C75.26421208 155.04015682 77.07010413 157.02472785 78.9375 159.796875 C79.01267661 164.0819416 78.62849731 166.02690657 75.75 169.234375 C72.26823789 171.16868728 70.89935636 171.29665046 66.9375 170.796875 C63.66185745 169.29846317 60.66616251 167.40734256 57.625 165.484375 C56.74779297 164.94401611 55.87058594 164.40365723 54.96679688 163.84692383 C49.24174336 160.30183429 43.58408548 156.65271737 37.9375 152.984375 C37.24237305 152.53594238 36.54724609 152.08750977 35.83105469 151.62548828 C32.68793717 149.59633962 29.56934808 147.54769462 26.49609375 145.4140625 C23.66643513 143.55123342 21.12866139 141.93412453 17.9375 140.796875 C15.6573634 141.34520444 14.25007042 142.31657055 12.3203125 143.63671875 C6.17064408 146.63090157 -2.79336806 145.90754162 -9.109375 143.76171875 C-16.01163556 140.00730733 -20.58433527 134.23136918 -23.0625 126.796875 C-23.87058046 118.35806008 -23.85771374 111.40119097 -19.25390625 104.04296875 C-17.0625 101.796875 -17.0625 101.796875 -14.91215515 100.96266174 C-11.82023615 99.60581611 -10.19074103 98.44911384 -8.0625 95.796875 C-6.29181768 89.46067822 -7.00189238 82.45849952 -7.140625 75.953125 C-7.1476724 73.9806833 -7.15002336 72.00821973 -7.14788818 70.0357666 C-7.15158766 64.8489442 -7.20462484 59.66393944 -7.2723999 54.4776001 C-7.37704186 46.17743839 -7.42649204 37.87748025 -7.43862152 29.57670593 C-7.45292499 26.68111411 -7.50026669 23.78737191 -7.55059814 20.89221191 C-7.56131032 19.11239294 -7.57087266 17.33256656 -7.57910156 15.55273438 C-7.60186661 14.75151657 -7.62463165 13.95029877 -7.64808655 13.12480164 C-7.63562187 9.03498557 -7.26502929 6.54037503 -4.65911865 3.29943848 C-2.0625 0.796875 -2.0625 0.796875 0 0 Z " fill="#40B8E4" transform="translate(254.0625,136.203125)"/>
<path d="M0 0 C0.66 -0.0103125 1.32 -0.020625 2 -0.03125 C5.04283373 0.77700271 6.09470206 1.98593539 8 4.5 C8.37390367 7.52980107 8.50671131 10.1897649 8.45410156 13.21582031 C8.45468567 14.09422577 8.45526978 14.97263123 8.45587158 15.87765503 C8.45308705 18.77821506 8.4219777 21.67774472 8.390625 24.578125 C8.38316392 26.59022459 8.37747036 28.60233146 8.37347412 30.61444092 C8.35820736 35.90824473 8.31891633 41.20160901 8.2746582 46.49523926 C8.23372812 51.89780735 8.21546793 57.30044652 8.1953125 62.703125 C8.15242328 73.30227636 8.08415913 83.90110162 8 94.5 C2.72 94.5 -2.56 94.5 -8 94.5 C-8.09262748 82.83460851 -8.16372827 71.16930432 -8.20724869 59.50362015 C-8.22813499 54.08691684 -8.25647193 48.67046489 -8.30175781 43.25390625 C-8.34517797 38.02787552 -8.36912925 32.80208676 -8.37950897 27.57588959 C-8.3869072 25.58073873 -8.40135404 23.5856013 -8.42292023 21.59055328 C-8.4519032 18.79868314 -8.45595813 16.00781637 -8.45410156 13.21582031 C-8.46848267 12.38863495 -8.48286377 11.56144958 -8.49768066 10.709198 C-8.47131154 7.05127854 -8.34016415 4.94885088 -6.09661865 1.98846436 C-3.8280999 0.37796199 -2.75131521 -0.0429893 0 0 Z " fill="#282D60" transform="translate(256,136.5)"/>
<path d="M0 0 C4.90414015 1.67340483 8.9888721 4.39778548 13.3125 7.1875 C18.99327138 10.82737031 24.68794064 14.43520777 30.4453125 17.953125 C32.06312622 18.94662964 32.06312622 18.94662964 33.71362305 19.96020508 C35.83064681 21.25863563 37.95179623 22.55036805 40.07739258 23.8347168 C41.05087646 24.43453369 42.02436035 25.03435059 43.02734375 25.65234375 C43.89093506 26.17820068 44.75452637 26.70405762 45.64428711 27.24584961 C48.32671208 29.24328182 50.13260413 31.22785285 52 34 C52.07517661 38.2850666 51.69099731 40.23003157 48.8125 43.4375 C45.33073789 45.37181228 43.96185636 45.49977546 40 45 C36.72436616 43.50159216 33.72857452 41.61059697 30.6875 39.6875 C29.81101807 39.14714111 28.93453613 38.60678223 28.03149414 38.05004883 C20.23712936 33.22054131 12.53684822 28.24232527 4.8671875 23.21777344 C0.60439272 20.43759295 -3.6995591 17.72144532 -8 15 C-6.38102741 11.69918209 -4.64075691 8.47442567 -2.875 5.25 C-2.33617187 4.26515625 -1.79734375 3.2803125 -1.2421875 2.265625 C-0.83226562 1.51796875 -0.42234375 0.7703125 0 0 Z " fill="#2B3062" transform="translate(281,262)"/>
<path d="M0 0 C0.92425781 -0.01095703 1.84851563 -0.02191406 2.80078125 -0.03320312 C8.63936848 0.02944266 12.05366639 0.70083039 16.5 4.5625 C17.94430855 7.45111709 17.87688506 9.35897701 17.5 12.5625 C12.58337301 18.38482144 12.58337301 18.38482144 8.42456055 18.73950195 C5.67875827 18.80580271 2.93397027 18.84740653 0.1875 18.875 C-0.76318359 18.90400391 -1.71386719 18.93300781 -2.69335938 18.96289062 C-7.13741318 19.00326288 -9.74401499 19.0236984 -13.60546875 16.66796875 C-16.0433736 13.95862707 -16.45299307 12.91840959 -16.9375 9.25 C-16.5 5.5625 -16.5 5.5625 -14.12890625 2.8671875 C-9.81233207 -0.48107582 -5.25503892 -0.13559027 0 0 Z " fill="#B1C7D5" transform="translate(93.5,246.4375)"/>
<path d="M0 0 C3.97245401 0.70936679 5.67231707 1.79731707 8.5 4.625 C10.36179243 8.34858487 9.77112982 12.77659392 9.8125 16.875 C9.84150391 17.81730469 9.87050781 18.75960937 9.90039062 19.73046875 C9.95472737 25.69079184 9.48763714 29.09729326 5.5 33.625 C2.61138291 35.06930855 0.70352299 35.00188506 -2.5 34.625 C-8.30340389 29.72434783 -8.30340389 29.72434783 -8.69287109 25.56542969 C-8.78020844 22.83521134 -8.83456325 20.10631866 -8.875 17.375 C-8.91238281 16.43269531 -8.94976562 15.49039063 -8.98828125 14.51953125 C-9.04529134 10.00306542 -9.05473075 6.64396161 -6.1953125 2.9921875 C-3.5 0.625 -3.5 0.625 0 0 Z " fill="#B1C7D5" transform="translate(255.5,76.375)"/>
<path d="M0 0 C5.11941786 1.58939045 8.65817966 5.93535782 12.27734375 9.70703125 C13.00050781 10.42246094 13.72367188 11.13789063 14.46875 11.875 C17.33061971 14.86406392 19.08179479 16.80039516 19.96484375 20.89453125 C19.11906123 24.35455064 17.74469476 26.16711109 15.27734375 28.70703125 C12.42488723 30.13325951 10.4414965 30.01762293 7.27734375 29.70703125 C3.50967868 27.19137235 0.45990852 23.9196675 -2.72265625 20.70703125 C-3.44839844 20.01480469 -4.17414063 19.32257813 -4.921875 18.609375 C-8.04675507 15.42110994 -10.14817266 13.02906736 -10.41015625 8.45703125 C-9.72265625 4.70703125 -9.72265625 4.70703125 -8.22265625 2.20703125 C-5.46028357 0.54960764 -3.24564649 -0.16318893 0 0 Z " fill="#B0C6D4" transform="translate(136.72265625,126.29296875)"/>
<path d="M0 0 C3.70492515 2.05829175 4.78327144 3.3115681 6.0625 7.375 C5.92847295 15.14856875 -0.44922731 19.65637598 -5.66015625 24.828125 C-8.62761334 27.5825593 -10.31058154 28.91063094 -14.375 29.4375 C-18 29 -18 29 -20.9375 26.9375 C-23 24 -23 24 -23.75 20.6875 C-22.67062146 15.38055551 -19.76986896 12.73326829 -16 9 C-15.36707031 8.34257812 -14.73414063 7.68515625 -14.08203125 7.0078125 C-6.50381772 -0.78045813 -6.50381772 -0.78045813 0 0 Z " fill="#B0C7D4" transform="translate(150,356)"/>
<path d="M0 0 C2.9375 1.5 2.9375 1.5 5 4 C5.85105836 7.52581322 6.0835175 8.68704597 5 12 C2.37553678 15.73769707 -0.70942198 18.84631003 -4 22 C-4.63035156 22.63808594 -5.26070313 23.27617187 -5.91015625 23.93359375 C-8.79608693 26.67489921 -10.7586518 27.92509884 -14.625 29.125 C-18.76516611 28.97166051 -20.15215769 27.93160237 -23 25 C-24.42622826 22.14754348 -24.31059168 20.16415275 -24 17 C-21.48462451 13.23275939 -18.21483789 10.17978514 -15 7 C-14.29617188 6.27425781 -13.59234375 5.54851562 -12.8671875 4.80078125 C-8.72707805 0.79867544 -6.01190933 -1.24775477 0 0 Z " fill="#B0C6D4" transform="translate(380,127)"/>
<path d="M0 0 C4.1388082 1.43110068 6.96970912 4.62898457 9.98828125 7.6875 C10.74238281 8.4196875 11.49648438 9.151875 12.2734375 9.90625 C15.65125533 13.38534279 17.75960551 15.63207352 18.80078125 20.4375 C17.75192722 24.63291614 16.52467822 26.20449787 12.98828125 28.6875 C9.80078125 29.5625 9.80078125 29.5625 5.98828125 28.6875 C2.29939635 26.02330535 -0.84388494 22.94390811 -4.01171875 19.6875 C-4.65109375 19.05714844 -5.29046875 18.42679687 -5.94921875 17.77734375 C-8.68581143 14.88944907 -9.93723904 12.92749019 -11.13671875 9.0625 C-10.98337926 4.92233389 -9.94332112 3.53534231 -7.01171875 0.6875 C-4.53842212 -0.54914832 -2.69781991 -0.44684388 0 0 Z " fill="#B0C6D4" transform="translate(367.01171875,356.3125)"/>
<path d="M0 0 C3.08349491 0.64239477 4.77540083 1.45929888 6.94824219 3.74804688 C9.36913042 8.0683321 8.70711 13.37859127 8.625 18.1875 C8.65400391 19.89196289 8.65400391 19.89196289 8.68359375 21.63085938 C8.63497202 29.87224227 8.63497202 29.87224227 5.68359375 33.37109375 C2.15563791 35.01952727 -0.15072069 35.18489517 -4 34.625 C-6.71045047 32.540622 -7.85695003 31.34090454 -8.53344727 27.95532227 C-8.56906882 24.69792918 -8.59391152 21.44505913 -8.5625 18.1875 C-8.58634766 17.05505859 -8.61019531 15.92261719 -8.63476562 14.75585938 C-8.61840644 5.50201545 -8.61840644 5.50201545 -5.65234375 2.37890625 C-3 0.625 -3 0.625 0 0 Z " fill="#AEC5D3" transform="translate(256,400.375)"/>
<path d="M0 0 C1.70446289 -0.01643555 1.70446289 -0.01643555 3.44335938 -0.03320312 C11.77114975 0.04049413 11.77114975 0.04049413 14.76147461 2.38305664 C16.4375 4.5625 16.4375 4.5625 16.9375 8 C16.32035788 12.39713759 15.84639722 13.68700064 12.4375 16.5625 C8.28609533 17.3302791 4.21023715 17.25914329 0 17.1875 C-1.13244141 17.20683594 -2.26488281 17.22617187 -3.43164062 17.24609375 C-12.66886841 17.19166106 -12.66886841 17.19166106 -15.80859375 14.2109375 C-17.5625 11.5625 -17.5625 11.5625 -18.1875 8.5625 C-17.54512697 5.47910947 -16.72798974 3.78332013 -14.43945312 1.60986328 C-10.12207509 -0.79928757 -4.79935846 -0.10106788 0 0 Z " fill="#AEC5D3" transform="translate(418.5625,247.4375)"/>
</svg>
