<?xml version="1.0" encoding="UTF-8"?>
<svg version="1.1" xmlns="http://www.w3.org/2000/svg" width="512" height="512">
<path d="M0 0 C1.19886841 0.31423416 2.39773682 0.62846832 3.63293457 0.95222473 C4.94648328 1.30217889 6.25999934 1.65225563 7.57348633 2.00244141 C8.98853838 2.37567321 10.40370313 2.74847795 11.81896973 3.12089539 C15.69883861 4.14340743 19.57688742 5.17267338 23.45461655 6.20326614 C26.7564334 7.07993023 30.05926553 7.952735 33.3620882 8.82560062 C76.26685309 20.16579488 119.13328968 31.65198138 161.99772739 43.14349365 C167.92718189 44.73262561 173.85771765 46.31765331 179.78908443 47.89963245 C183.64933125 48.92942963 187.50914826 49.96083178 191.36890602 50.99246025 C193.18349805 51.47701239 194.99829279 51.96080608 196.81329918 52.44380379 C199.29353739 53.10390154 201.77306441 53.76660773 204.25244141 54.42993164 C204.98537981 54.6242597 205.71831821 54.81858776 206.47346687 55.01880455 C211.49011807 56.36505415 211.49011807 56.36505415 213.71801758 57.47900391 C213.71801758 59.45900391 213.71801758 61.43900391 213.71801758 63.47900391 C193.93912733 70.78432301 174.11278519 77.94433435 154.2331543 84.97070312 C150.62435837 86.2463054 147.01692919 87.52572849 143.40980911 88.80606079 C140.57062935 89.81324678 137.73066144 90.81819533 134.89046478 91.82250977 C133.55874165 92.29376218 132.2272754 92.7657413 130.89609528 93.23852539 C123.55436319 95.84478807 116.21043609 98.33962692 108.71801758 100.47900391 C108.72690002 101.4133728 108.73578247 102.3477417 108.74493408 103.3104248 C108.82619744 112.1375504 108.88606788 120.96459959 108.92526627 129.79201508 C108.94609647 134.32976432 108.97433004 138.86721037 109.01977539 143.40478516 C109.06339692 147.78793802 109.08718901 152.17080017 109.09752655 156.55415344 C109.10488877 158.22223992 109.11926539 159.89031139 109.14093781 161.55827332 C109.26306212 171.35118378 109.14825691 178.49335367 103.10473633 186.65869141 C79.57593285 210.13340569 43.77767012 220.38887616 11.71801758 224.47900391 C10.92274658 224.58067871 10.12747559 224.68235352 9.30810547 224.78710938 C-0.08162579 225.80787078 -9.53573674 225.72272722 -18.96948242 225.72900391 C-20.33683533 225.73001602 -20.33683533 225.73001602 -21.73181152 225.73104858 C-64.67394043 225.68063818 -112.12604935 216.54858685 -143.87963867 185.27978516 C-147.71838907 180.35035916 -148.66237706 176.08812095 -148.71435547 169.91308594 C-148.72964294 168.81449501 -148.72964294 168.81449501 -148.74523926 167.69371033 C-148.7752491 165.29133333 -148.78461647 162.88935583 -148.79370117 160.48681641 C-148.81055682 158.81385994 -148.82870826 157.14091607 -148.84809875 155.46798706 C-148.89550883 151.07865332 -148.9253762 146.68937067 -148.95153809 142.29986572 C-148.98138912 137.81520502 -149.02790381 133.33072016 -149.07299805 128.84619141 C-149.15892881 120.05721549 -149.22631937 111.2682234 -149.28198242 102.47900391 C-150.1693561 109.96412835 -150.60644718 117.38166001 -150.84448242 124.91650391 C-150.90708252 126.89360352 -150.90708252 126.89360352 -150.97094727 128.91064453 C-151.31707126 140.76539141 -151.3911017 152.61977932 -151.40698242 164.47900391 C-151.41086472 165.8085762 -151.41086472 165.8085762 -151.41482544 167.16500854 C-151.42814468 172.93772849 -151.39250605 178.70728252 -151.28198242 184.47900391 C-151.26872925 185.22424316 -151.25547607 185.96948242 -151.24182129 186.73730469 C-151.19350118 188.81961036 -151.11531377 190.89818116 -151.02416992 192.97900391 C-150.9788916 194.14431641 -150.93361328 195.30962891 -150.88696289 196.51025391 C-150.16411041 200.05742347 -148.94481018 201.1263772 -146.28198242 203.47900391 C-145.08986804 207.05534704 -145.02271669 209.71965074 -145.28198242 213.47900391 C-145.78213867 214.26533203 -146.28229492 215.05166016 -146.79760742 215.86181641 C-149.46710287 220.56855837 -148.27543464 225.33607139 -147.28198242 230.47900391 C-145.26455159 237.00461671 -142.44977203 243.16048254 -139.59448242 249.35400391 C-134.26695859 260.99749153 -133.85602475 270.92854889 -138.07885742 283.02929688 C-140.92798639 290.63418878 -144.96523433 297.34429457 -150.28198242 303.47900391 C-152.70620599 303.09215972 -153.98010598 302.79672469 -155.69604492 300.99072266 C-156.29545898 300.08773437 -156.29545898 300.08773437 -156.90698242 299.16650391 C-157.31174805 298.57224609 -157.71651367 297.97798828 -158.13354492 297.36572266 C-166.56799208 283.5091309 -171.08656419 267.60534908 -168.28198242 251.47900391 C-167.63381057 249.40380855 -166.94576825 247.34066749 -166.21948242 245.29150391 C-164.31679828 239.63223827 -163.84145261 234.4607698 -163.78198242 228.54150391 C-163.76385498 227.73624268 -163.74572754 226.93098145 -163.72705078 226.10131836 C-163.78188447 220.68974179 -164.95148903 217.89581057 -168.28198242 213.47900391 C-168.92042519 209.00990452 -168.63625767 207.0847003 -166.34448242 203.16650391 C-165.66385742 202.27962891 -164.98323242 201.39275391 -164.28198242 200.47900391 C-162.63093906 197.17691718 -163.53772839 193.56463327 -163.84057617 189.97119141 C-163.98211589 188.12371731 -164.12226344 186.27613619 -164.26123047 184.4284668 C-164.33642914 183.44024933 -164.41162781 182.45203186 -164.48910522 181.43386841 C-166.63244604 152.77999399 -166.6023271 124.19646343 -166.28198242 95.47900391 C-166.90106979 95.32085709 -167.52015717 95.16271027 -168.15800476 94.99977112 C-176.35157462 92.84218934 -184.35030851 90.17938631 -192.36401367 87.44384766 C-193.79113571 86.95939058 -195.21835834 86.4752297 -196.64567566 85.99134827 C-200.37113022 84.72751667 -204.09525717 83.45981857 -207.8190918 82.19122314 C-211.60737687 80.90139744 -215.3968639 79.61511357 -219.1862793 78.32861328 C-223.44925973 76.88116094 -227.71211938 75.4333615 -231.97407532 73.9828949 C-232.62227737 73.76232422 -233.27047943 73.54175354 -233.93832397 73.3144989 C-235.68121037 72.72133168 -237.42402037 72.12794001 -239.16682434 71.53453064 C-242.20197403 70.50611361 -245.24088657 69.48968693 -248.28198242 68.47900391 C-248.28198242 66.49900391 -248.28198242 64.51900391 -248.28198242 62.47900391 C-229.17754043 56.79891845 -209.97552866 51.4994368 -190.75341415 46.23571014 C-186.41719994 45.04774327 -182.0816507 43.85735514 -177.74609375 42.66699219 C-176.85923228 42.42350288 -175.97237082 42.18001358 -175.05863476 41.92914581 C-173.24367027 41.43083818 -171.42870822 40.93252166 -169.61374855 40.43419647 C-166.84294344 39.67351052 -164.07207505 38.91305544 -161.30119324 38.15264893 C-142.20331721 32.91118264 -123.110692 27.65071261 -104.01956177 22.38473511 C-99.52342583 21.14457041 -95.02708456 19.90515229 -90.53065968 18.66603565 C-87.94997878 17.9546711 -85.36945578 17.24273607 -82.78895569 16.53071594 C-79.42395016 15.60230135 -76.05827433 14.67637345 -72.69212341 13.75212097 C-64.59559607 11.52522867 -56.51004067 9.26687267 -48.44294643 6.93531609 C-44.48977704 5.79352843 -40.53361845 4.66228675 -36.57735634 3.53126907 C-34.68439609 2.98658468 -32.79299606 2.43644446 -30.90331078 1.88050461 C-28.27974969 1.10886824 -25.65144503 0.35592949 -23.02148438 -0.39355469 C-21.86888217 -0.7408066 -21.86888217 -0.7408066 -20.69299507 -1.0950737 C-13.33272477 -3.155395 -7.35717014 -1.94457597 0 0 Z " fill="#47535E" transform="translate(273.281982421875,105.52099609375)"/>
<path d="M0 0 C0 1.98 0 3.96 0 6 C-19.77889025 13.3053191 -39.60523238 20.46533044 -59.48486328 27.49169922 C-63.09365921 28.76730149 -66.70108839 30.04672458 -70.30820847 31.32705688 C-73.14738823 32.33424288 -75.98735614 33.33919142 -78.8275528 34.34350586 C-80.15927592 34.81475828 -81.49074217 35.28673739 -82.8219223 35.75952148 C-90.16365439 38.36578417 -97.50758149 40.86062301 -105 43 C-104.99111755 43.9343689 -104.98223511 44.86873779 -104.9730835 45.8314209 C-104.89182014 54.65854649 -104.83194969 63.48559568 -104.79275131 72.31301117 C-104.77192111 76.85076042 -104.74368754 81.38820647 -104.69824219 85.92578125 C-104.65462065 90.30893412 -104.63082857 94.69179627 -104.62049103 99.07514954 C-104.61312881 100.74323601 -104.59875219 102.41130748 -104.57707977 104.07926941 C-104.45495546 113.87217988 -104.56976067 121.01434976 -110.61328125 129.1796875 C-134.14208473 152.65440178 -169.94034746 162.90987226 -202 167 C-202.795271 167.1016748 -203.59054199 167.20334961 -204.40991211 167.30810547 C-213.79964337 168.32886688 -223.25375432 168.24372332 -232.6875 168.25 C-234.05485291 168.25101212 -234.05485291 168.25101212 -235.4498291 168.25204468 C-278.39195801 168.20163427 -325.84406693 159.06958295 -357.59765625 127.80078125 C-361.39690543 122.92207965 -362.44307097 118.43611967 -362.41650391 112.37402344 C-362.42938194 111.26562103 -362.42938194 111.26562103 -362.44252014 110.13482666 C-362.46747224 107.70957758 -362.47194852 105.28474042 -362.4765625 102.859375 C-362.49087985 101.16879028 -362.50663818 99.4782172 -362.52377319 97.78765869 C-362.56553988 93.34975489 -362.59059668 88.91192332 -362.61126709 84.47387695 C-362.64715087 77.35644865 -362.70799672 70.23919821 -362.76975632 63.12195587 C-362.78886814 60.63466945 -362.80058015 58.14743078 -362.81118774 55.66009521 C-362.82139562 54.14286188 -362.83175318 52.62562955 -362.84228516 51.10839844 C-362.84332748 50.41435913 -362.84436981 49.72031982 -362.84544373 49.00524902 C-362.83569087 45.38003962 -362.83569087 45.38003962 -364 42 C-360.22749414 38.0560166 -360.22749414 38.0560166 -357.03125 37.91015625 C-349.92983237 38.33755638 -343.76596698 40.2353089 -337.109375 42.56469727 C-331.78482584 44.42553919 -326.44882361 46.0450754 -321 47.5 C-314.92250605 49.13404007 -308.95462936 50.96345088 -303 53 C-297.10679948 55.01540699 -291.20329707 56.82479955 -285.1875 58.4375 C-277.63616244 60.46443798 -270.25762628 62.87762217 -262.85888672 65.40063477 C-256.13547591 67.67320507 -249.36408641 69.65995786 -242.5078125 71.49023438 C-237.16590712 72.91704644 -237.16590712 72.91704644 -235 74 C-228.69925719 74.42142984 -223.95124029 73.32232361 -218.05859375 71.18359375 C-217.2227626 70.89198868 -216.38693146 70.60038361 -215.52577209 70.29994202 C-213.74645556 69.67803587 -211.96901592 69.05073734 -210.19335938 68.41845703 C-205.5426087 66.76300733 -200.87804061 65.14732801 -196.21484375 63.52734375 C-195.30596405 63.210466 -194.39708435 62.89358826 -193.46066284 62.56710815 C-187.18382485 60.38603909 -180.88219888 58.35255312 -174.5 56.5 C-161.79658866 52.78606643 -149.31802328 48.38459012 -136.8125 44.06054688 C-127.90854367 40.98612041 -118.99027166 38.01320228 -109.98852539 35.23828125 C-102.52704927 32.9342246 -95.11182088 30.48293312 -87.6875 28.0625 C-85.95925323 27.49976134 -84.23098113 26.93710045 -82.50268555 26.37451172 C-78.87241212 25.19266923 -75.24231161 24.01029747 -71.61230469 22.82763672 C-66.88612624 21.28814372 -62.15915425 19.7511038 -57.43186951 18.2150116 C-53.64092087 16.98315291 -49.85018678 15.75063479 -46.05947876 14.51803589 C-44.26575074 13.93489942 -42.47195102 13.35198346 -40.67807007 12.76931763 C-38.13539404 11.94332129 -35.5930082 11.11643988 -33.05078125 10.2890625 C-32.23701523 10.02441696 -31.42324921 9.75977142 -30.58482361 9.48710632 C-26.09402858 8.02266785 -21.61097411 6.53729482 -17.13427734 5.03027344 C-16.16870407 4.7057016 -15.2031308 4.38112976 -14.20829773 4.04672241 C-12.3408505 3.41779753 -10.47428539 2.78624577 -8.60871887 2.15176392 C-7.77257553 1.87013397 -6.93643219 1.58850403 -6.07495117 1.29833984 C-5.33492355 1.04724457 -4.59489594 0.79614929 -3.83244324 0.53744507 C-2 0 -2 0 0 0 Z " fill="#333C45" transform="translate(487,163)"/>
<path d="M0 0 C0 1.98 0 3.96 0 6 C-20.51611929 13.58439615 -41.0954096 20.97334657 -61.72515869 28.24237061 C-67.48995918 30.27395419 -73.2537434 32.3084172 -79.01730728 34.34350586 C-80.99554872 35.04162985 -82.97417025 35.73866731 -84.95285034 36.43554688 C-86.15676422 36.86029297 -87.3606781 37.28503906 -88.60107422 37.72265625 C-90.2733609 38.31264404 -90.2733609 38.31264404 -91.97943115 38.91455078 C-94.56376056 39.84323623 -97.12515646 40.81278185 -99.68408203 41.80859375 C-103 43 -103 43 -106 43 C-106 49.93 -106 56.86 -106 64 C-113.94435471 67.37166532 -121.9149828 70.49609939 -130.05078125 73.37109375 C-131.17195847 73.77029526 -132.29313568 74.16949677 -133.44828796 74.58079529 C-135.83635979 75.43066594 -138.224947 76.27908963 -140.61401367 77.12615967 C-144.36024308 78.45442785 -148.10515608 79.78636497 -151.84960938 81.11962891 C-155.6342236 82.46698748 -159.41890494 83.81415417 -163.20413208 85.15979004 C-173.33600094 88.76175158 -183.46300594 92.37706287 -193.58432007 96.00857544 C-195.9116953 96.84332802 -198.23963556 97.67648916 -200.56762695 98.50952148 C-201.28843948 98.76815475 -202.00925201 99.02678802 -202.75190735 99.29325867 C-204.14412624 99.79256594 -205.53692032 100.29027293 -206.93034363 100.78620911 C-210.43547511 102.04170006 -213.90733684 103.35169224 -217.359375 104.74707031 C-218.07496582 105.0312381 -218.79055664 105.31540588 -219.52783203 105.60818481 C-220.87814519 106.14719006 -222.22343777 106.69903948 -223.56201172 107.26657104 C-230.82725705 110.14558971 -236.8927146 107.90255701 -243.9921875 105.55078125 C-244.7581575 105.30188141 -245.5241275 105.05298157 -246.31330872 104.79653931 C-248.83590172 103.97459438 -251.35548165 103.14381767 -253.875 102.3125 C-255.66114769 101.72774279 -257.44736315 101.14319254 -259.23364258 100.55883789 C-273.45169174 95.89422562 -287.61242193 91.06529716 -301.75927734 86.18969727 C-310.40361384 83.2160984 -319.06344992 80.30776049 -327.76953125 77.51953125 C-328.63680344 77.2413707 -329.50407562 76.96321014 -330.39762878 76.67662048 C-334.54235444 75.34951764 -338.69004559 74.03284468 -342.8425293 72.73022461 C-344.31174155 72.26303209 -345.78090154 71.79567519 -347.25 71.328125 C-347.9238826 71.12044998 -348.5977652 70.91277496 -349.29206848 70.69880676 C-350.88084097 70.18969191 -352.44407382 69.60207116 -354 69 C-354.33 68.34 -354.66 67.68 -355 67 C-357.32156597 66.59270772 -359.6568787 66.25561323 -362 66 C-362.02505615 65.34402832 -362.0501123 64.68805664 -362.07592773 64.01220703 C-362.1917326 61.04959817 -362.31452886 58.08731969 -362.4375 55.125 C-362.47681641 54.09246094 -362.51613281 53.05992187 -362.55664062 51.99609375 C-362.59853516 51.00996094 -362.64042969 50.02382812 -362.68359375 49.0078125 C-362.72025146 48.09660645 -362.75690918 47.18540039 -362.79467773 46.24658203 C-362.86577065 43.96516519 -362.86577065 43.96516519 -364 42 C-360.22749414 38.0560166 -360.22749414 38.0560166 -357.03125 37.91015625 C-349.92983237 38.33755638 -343.76596698 40.2353089 -337.109375 42.56469727 C-331.78482584 44.42553919 -326.44882361 46.0450754 -321 47.5 C-314.92250605 49.13404007 -308.95462936 50.96345088 -303 53 C-297.10679948 55.01540699 -291.20329707 56.82479955 -285.1875 58.4375 C-277.63616244 60.46443798 -270.25762628 62.87762217 -262.85888672 65.40063477 C-256.13547591 67.67320507 -249.36408641 69.65995786 -242.5078125 71.49023438 C-237.16590712 72.91704644 -237.16590712 72.91704644 -235 74 C-228.69925719 74.42142984 -223.95124029 73.32232361 -218.05859375 71.18359375 C-217.2227626 70.89198868 -216.38693146 70.60038361 -215.52577209 70.29994202 C-213.74645556 69.67803587 -211.96901592 69.05073734 -210.19335938 68.41845703 C-205.5426087 66.76300733 -200.87804061 65.14732801 -196.21484375 63.52734375 C-195.30596405 63.210466 -194.39708435 62.89358826 -193.46066284 62.56710815 C-187.18382485 60.38603909 -180.88219888 58.35255312 -174.5 56.5 C-161.79658866 52.78606643 -149.31802328 48.38459012 -136.8125 44.06054688 C-127.90854367 40.98612041 -118.99027166 38.01320228 -109.98852539 35.23828125 C-102.52704927 32.9342246 -95.11182088 30.48293312 -87.6875 28.0625 C-85.95925323 27.49976134 -84.23098113 26.93710045 -82.50268555 26.37451172 C-78.87241212 25.19266923 -75.24231161 24.01029747 -71.61230469 22.82763672 C-66.88612624 21.28814372 -62.15915425 19.7511038 -57.43186951 18.2150116 C-53.64092087 16.98315291 -49.85018678 15.75063479 -46.05947876 14.51803589 C-44.26575074 13.93489942 -42.47195102 13.35198346 -40.67807007 12.76931763 C-38.13539404 11.94332129 -35.5930082 11.11643988 -33.05078125 10.2890625 C-32.23701523 10.02441696 -31.42324921 9.75977142 -30.58482361 9.48710632 C-26.09402858 8.02266785 -21.61097411 6.53729482 -17.13427734 5.03027344 C-16.16870407 4.7057016 -15.2031308 4.38112976 -14.20829773 4.04672241 C-12.3408505 3.41779753 -10.47428539 2.78624577 -8.60871887 2.15176392 C-7.77257553 1.87013397 -6.93643219 1.58850403 -6.07495117 1.29833984 C-5.33492355 1.04724457 -4.59489594 0.79614929 -3.83244324 0.53744507 C-2 0 -2 0 0 0 Z " fill="#20262C" transform="translate(487,163)"/>
<path d="M0 0 C0.804375 0.928125 0.804375 0.928125 1.625 1.875 C4.90856373 4.81292544 7.70793174 5.14158635 12 6 C9.15147403 7.89901732 7.44784213 8.53772348 4.1953125 9.33203125 C3.23052979 9.57050781 2.26574707 9.80898437 1.27172852 10.0546875 C0.23330811 10.30476562 -0.8051123 10.55484375 -1.875 10.8125 C-2.95273682 11.07675781 -4.03047363 11.34101563 -5.14086914 11.61328125 C-8.42552358 12.41616997 -11.71225399 13.20987472 -15 14 C-15.91797363 14.22091309 -16.83594727 14.44182617 -17.78173828 14.66943359 C-22.07653523 15.70054014 -26.37346593 16.72234436 -30.671875 17.73828125 C-37.19020428 19.27912987 -43.70223131 20.84606339 -50.21313477 22.41796875 C-56.31863972 23.88839969 -62.42857269 25.33667654 -68.54493713 26.76118469 C-72.23299259 27.62095834 -75.91969292 28.48647183 -79.60635376 29.35220337 C-81.41854274 29.77621201 -83.23132873 30.19767908 -85.04476929 30.61630249 C-95.55248059 33.04321136 -105.87085325 35.74561249 -116.11825562 39.12084961 C-121.82653797 41 -121.82653797 41 -124 41 C-125.72120165 63.31015249 -126.09510287 85.6329913 -126.125 108 C-126.1275882 108.88683472 -126.13017639 109.77366943 -126.13284302 110.68737793 C-126.14616197 116.45964 -126.11051486 122.22873638 -126 128 C-125.98674683 128.74523926 -125.97349365 129.49047852 -125.95983887 130.25830078 C-125.91151876 132.34060645 -125.83333135 134.41917725 -125.7421875 136.5 C-125.69690918 137.6653125 -125.65163086 138.830625 -125.60498047 140.03125 C-124.88212799 143.57841956 -123.66282776 144.64737329 -121 147 C-119.80788562 150.57634313 -119.74073426 153.24064683 -120 157 C-120.50015625 157.78632813 -121.0003125 158.57265625 -121.515625 159.3828125 C-124.18512044 164.08955447 -122.99345222 168.85706749 -122 174 C-119.98256917 180.52561281 -117.1677896 186.68147863 -114.3125 192.875 C-108.98497617 204.51848762 -108.57404233 214.44954498 -112.796875 226.55029297 C-115.64600397 234.15518488 -119.68325191 240.86529066 -125 247 C-127.42422357 246.61315581 -128.69812356 246.31772078 -130.4140625 244.51171875 C-131.01347656 243.60873047 -131.01347656 243.60873047 -131.625 242.6875 C-132.02976562 242.09324219 -132.43453125 241.49898437 -132.8515625 240.88671875 C-141.28600966 227.03012699 -145.80458177 211.12634518 -143 195 C-142.35182815 192.92480465 -141.66378583 190.86166358 -140.9375 188.8125 C-139.03481586 183.15323436 -138.55947019 177.98176589 -138.5 172.0625 C-138.48187256 171.25723877 -138.46374512 170.45197754 -138.44506836 169.62231445 C-138.49990205 164.21073788 -139.66950661 161.41680666 -143 157 C-143.63844277 152.53090061 -143.35427525 150.60569639 -141.0625 146.6875 C-140.381875 145.800625 -139.70125 144.91375 -139 144 C-137.34896642 140.69793283 -138.25569348 137.08561173 -138.55859375 133.4921875 C-138.70032742 131.64520423 -138.84063597 129.7981112 -138.97973633 127.95092773 C-139.05495514 126.96277069 -139.13017395 125.97461365 -139.20767212 124.95651245 C-140.71270884 104.77710956 -141.31530309 84.67152948 -141.3125 64.4375 C-141.31563202 63.206828 -141.31876404 61.97615601 -141.32199097 60.70819092 C-141.32765521 57.19982191 -141.31764337 53.69191978 -141.30078125 50.18359375 C-141.30157684 49.13869278 -141.30237244 48.09379181 -141.30319214 47.01722717 C-141.20450032 36.84400109 -141.20450032 36.84400109 -139 33 C-136.07495117 31.66870117 -136.07495117 31.66870117 -132.35546875 30.85546875 C-131.68710495 30.70103806 -131.01874115 30.54660736 -130.3301239 30.38749695 C-128.92336856 30.06461941 -127.51402521 29.75283829 -126.10247803 29.45159912 C-122.84228373 28.75132979 -119.60548526 27.95456024 -116.36328125 27.17578125 C-114.37476018 26.71204848 -112.38525656 26.25270569 -110.3956604 25.79360962 C-97.33065117 22.77622238 -84.31189872 19.60029036 -71.3125 16.3125 C-60.40796019 13.55592222 -49.49876914 10.92896361 -38.49194336 8.60522461 C-31.82022372 7.19591615 -25.21605523 5.59999957 -18.609375 3.9140625 C-3.15384615 0 -3.15384615 0 0 0 Z " fill="#FCA52E" transform="translate(248,162)"/>
<path d="M0 0 C2.97 0.495 2.97 0.495 6 1 C6.00142502 1.65288498 6.00285004 2.30576996 6.00431824 2.97843933 C6.02400973 9.77584812 6.07827221 16.57235825 6.15258789 23.36938477 C6.17578018 25.90577751 6.19016645 28.44226672 6.19555664 30.97875977 C6.20483658 34.62577524 6.24581053 38.27127064 6.29296875 41.91796875 C6.2890361 43.05147263 6.28510345 44.1849765 6.28105164 45.35282898 C6.3320451 51.70770078 6.3320451 51.70770078 9.38476562 57.11914062 C10.67930664 58.05016602 10.67930664 58.05016602 12 59 C12.84175781 59.71800781 13.68351563 60.43601562 14.55078125 61.17578125 C22.54790033 67.36308555 30.82278321 71.83127834 40 76 C40.9914502 76.46019531 40.9914502 76.46019531 42.00292969 76.9296875 C68.94696611 89.3104524 98.47973573 93.21953654 127.875 93.25 C128.64324097 93.25133942 129.41148193 93.25267883 130.20300293 93.25405884 C143.02043094 93.24923325 155.37816233 92.33428966 168 90 C169.32008486 89.77988044 170.64038518 89.56104759 171.9609375 89.34375 C198.70848038 84.55314531 230.70863677 74.19837127 250 54 C250.64101189 51.90156254 250.64101189 51.90156254 251 50 C251.99 49.34 252.98 48.68 254 48 C255.20450304 45.44816596 255.20450304 45.44816596 256 43 C256.33 43 256.66 43 257 43 C257.60284368 51.17188096 256.5882036 56.46170651 251.48046875 62.921875 C229.31246751 87.0700245 191.22649276 97.01616567 160 101 C159.204729 101.1016748 158.40945801 101.20334961 157.59008789 101.30810547 C148.20035663 102.32886688 138.74624568 102.24372332 129.3125 102.25 C127.94514709 102.25101212 127.94514709 102.25101212 126.5501709 102.25204468 C83.60804199 102.20163427 36.15593307 93.06958295 4.40234375 61.80078125 C-0.62495894 55.34510844 -0.39882001 49.46471041 -0.29296875 41.6015625 C-0.28872391 40.41146576 -0.28447906 39.22136902 -0.28010559 37.99520874 C-0.26335169 34.20490625 -0.22570416 30.41514102 -0.1875 26.625 C-0.17244897 24.05078894 -0.1587613 21.47656953 -0.14648438 18.90234375 C-0.11345883 12.60138008 -0.06329145 6.30072843 0 0 Z " fill="#4D5A67" transform="translate(125,229)"/>
<path d="M0 0 C3.16620095 2.18618637 3.7896387 3.36891611 5 7 C5.46443228 13.26983584 5.46443228 13.26983584 3.484375 16.3828125 C0.81487956 21.08955447 2.00654778 25.85706749 3 31 C5.01743083 37.52561281 7.8322104 43.68147863 10.6875 49.875 C16.01502383 61.51848762 16.42595767 71.44954498 12.203125 83.55029297 C9.35399603 91.15518488 5.31674809 97.86529066 0 104 C-2.42422357 103.61315581 -3.69812356 103.31772078 -5.4140625 101.51171875 C-6.01347656 100.60873047 -6.01347656 100.60873047 -6.625 99.6875 C-7.02976562 99.09324219 -7.43453125 98.49898438 -7.8515625 97.88671875 C-16.28600966 84.03012699 -20.80458177 68.12634518 -18 52 C-17.35182815 49.92480465 -16.66378583 47.86166358 -15.9375 45.8125 C-14.03481586 40.15323436 -13.55947019 34.98176589 -13.5 29.0625 C-13.48187256 28.25723877 -13.46374512 27.45197754 -13.44506836 26.62231445 C-13.49990205 21.21073788 -14.66950661 18.41680666 -18 14 C-18.63064348 9.58549562 -18.30580838 7.56943629 -16.1875 3.625 C-12.10415938 -1.27500875 -5.96593057 -0.66188735 0 0 Z " fill="#FE942D" transform="translate(123,305)"/>
<path d="M0 0 C2.97 0.495 2.97 0.495 6 1 C5.9969838 1.64400253 5.99396759 2.28800507 5.99085999 2.95152283 C5.96620263 9.68476138 5.99055064 16.41658605 6.04272461 23.1496582 C6.0558239 25.65873868 6.0566359 28.16791578 6.04467773 30.67700195 C6.02960682 34.29474022 6.05944526 37.90982252 6.09765625 41.52734375 C6.08340103 42.64020248 6.06914581 43.75306122 6.05445862 44.89964294 C6.20259804 52.95883336 8.40649139 57.25764389 14 63 C14.72445312 63.77472656 15.44890625 64.54945313 16.1953125 65.34765625 C31.06431627 78.56120413 50.22904193 86.90632846 69 93 C69 93.33 69 93.66 69 94 C62.59286136 93.48616017 57.12506636 92.33783657 51.125 90.0625 C49.90768188 89.60496338 49.90768188 89.60496338 48.66577148 89.13818359 C31.78861244 82.57962636 11.82549424 73.14625192 1.43066406 57.66235352 C-0.66022539 52.3098906 -0.36962563 47.29600984 -0.29296875 41.6015625 C-0.28872391 40.41146576 -0.28447906 39.22136902 -0.28010559 37.99520874 C-0.26335169 34.20490625 -0.22570416 30.41514102 -0.1875 26.625 C-0.17244897 24.05078894 -0.1587613 21.47656953 -0.14648438 18.90234375 C-0.11345883 12.60138008 -0.06329145 6.30072843 0 0 Z " fill="#656F7A" transform="translate(125,229)"/>
<path d="M0 0 C3.16620095 2.18618637 3.7896387 3.36891611 5 7 C5.46666667 13.3 5.46666667 13.3 3.5 16.25 C1.41048896 20.08077024 1.82009365 23.38100172 1.9921875 27.671875 C1.99605469 28.82429688 1.99605469 28.82429688 2 30 C1 31 1 31 -1.90625 31.1328125 C-3.0921875 31.13023437 -4.278125 31.12765625 -5.5 31.125 C-6.6859375 31.12757813 -7.871875 31.13015625 -9.09375 31.1328125 C-12 31 -12 31 -13 30 C-13.13223519 28.43962479 -13.23068529 26.87632969 -13.3125 25.3125 C-13.72530587 20.46891118 -15.23900474 18.00789635 -18 14 C-18.63064348 9.58549562 -18.30580838 7.56943629 -16.1875 3.625 C-12.10415938 -1.27500875 -5.96593057 -0.66188735 0 0 Z " fill="#FE922E" transform="translate(123,305)"/>
<path d="M0 0 C0.6077124 0.1858667 1.2154248 0.3717334 1.84155273 0.56323242 C4.70658845 1.43890737 7.57204409 2.31320107 10.4375 3.1875 C11.86932617 3.62545898 11.86932617 3.62545898 13.33007812 4.07226562 C18.45958773 5.6363456 23.59451136 7.17732935 28.74307251 8.67764282 C40.39505242 12.07627299 51.97726293 15.69402361 63.5625 19.3125 C65.65295596 19.96431725 67.74345052 20.61601072 69.83398438 21.26757812 C74.88976749 22.84362957 79.94507693 24.42119243 85 26 C84.01 29.465 84.01 29.465 83 33 C74.29905861 31.34561284 66.0554717 28.44669021 57.6953125 25.58984375 C56.12366496 25.05659918 54.55187497 24.52377432 52.97994995 23.99134827 C48.86654357 22.59686629 44.75506416 21.19678772 40.64398193 19.79547119 C36.45130033 18.36743394 32.25683247 16.9446639 28.0625 15.52148438 C20.70544289 13.02450773 13.34996729 10.52292219 5.99563599 8.01792908 C3.99905338 7.33948233 2.00049216 6.66683072 0 6 C0 4.02 0 2.04 0 0 Z " fill="#15191C" transform="translate(25,168)"/>
<path d="M0 0 C2.97 0.495 2.97 0.495 6 1 C6 18.16 6 35.32 6 53 C0.24681731 47.24681731 0.24681731 47.24681731 -0.24050903 42.81060791 C-0.23606781 42.02007019 -0.23162659 41.22953247 -0.22705078 40.41503906 C-0.22689972 39.51440735 -0.22674866 38.61377563 -0.22659302 37.68585205 C-0.21627045 36.72217712 -0.20594788 35.7585022 -0.1953125 34.765625 C-0.1924826 33.77246277 -0.18965271 32.77930054 -0.18673706 31.75604248 C-0.17555143 28.58723856 -0.15044962 25.41871835 -0.125 22.25 C-0.11496812 20.1002645 -0.10584263 17.95052457 -0.09765625 15.80078125 C-0.07561741 10.53375754 -0.04215584 5.26689904 0 0 Z " fill="#575C61" transform="translate(125,229)"/>
<path d="M0 0 C1.29449495 3.88348484 1.13203312 6.90697336 1 11 C0 12 0 12 -2.90625 12.1328125 C-4.0921875 12.13023437 -5.278125 12.12765625 -6.5 12.125 C-7.6859375 12.12757813 -8.871875 12.13015625 -10.09375 12.1328125 C-13 12 -13 12 -14 11 C-14.07205511 9.31391034 -14.08386068 7.62499341 -14.0625 5.9375 C-14.05347656 5.01839844 -14.04445313 4.09929687 -14.03515625 3.15234375 C-14.02355469 2.44207031 -14.01195313 1.73179687 -14 1 C-12.95199219 1.01740234 -12.95199219 1.01740234 -11.8828125 1.03515625 C-10.97273438 1.04417969 -10.06265625 1.05320312 -9.125 1.0625 C-7.76761719 1.07990234 -7.76761719 1.07990234 -6.3828125 1.09765625 C-3.92124681 0.99677241 -2.42285583 0 0 0 Z " fill="#32383D" transform="translate(124,324)"/>
<path d="M0 0 C2.97 0.495 2.97 0.495 6 1 C6 8.26 6 15.52 6 23 C4.02 22.67 2.04 22.34 0 22 C0 14.74 0 7.48 0 0 Z " fill="#36393D" transform="translate(125,207)"/>
<path d="M0 0 C8.48403474 1.40677487 16.79362712 3.31408191 25.125 5.4375 C26.35476562 5.73720703 27.58453125 6.03691406 28.8515625 6.34570312 C30.016875 6.64283203 31.1821875 6.93996094 32.3828125 7.24609375 C33.43871582 7.51091553 34.49461914 7.7757373 35.58251953 8.04858398 C36.38028809 8.36255127 37.17805664 8.67651855 38 9 C38.495 10.485 38.495 10.485 39 12 C34.20374841 13.55209172 30.45466443 12.21937917 25.85546875 10.69140625 C25.08568192 10.44583481 24.31589508 10.20026337 23.52278137 9.94725037 C21.07400461 9.16328426 18.63085929 8.36317189 16.1875 7.5625 C14.52443429 7.02692001 12.86102601 6.49240249 11.19726562 5.95898438 C7.12743813 4.65160132 3.06258271 3.3297164 -1 2 C-0.67 1.34 -0.34 0.68 0 0 Z " fill="#404B55" transform="translate(76,182)"/>
<path d="M0 0 C1.29449495 3.88348484 1.13203312 6.90697336 1 11 C0 12 0 12 -3.0625 12.0625 C-4.031875 12.041875 -5.00125 12.02125 -6 12 C-6 9.03 -6 6.06 -6 3 C-6.99 2.67 -7.98 2.34 -9 2 C-2.25 0 -2.25 0 0 0 Z " fill="#49535C" transform="translate(124,324)"/>
<path d="M0 0 C1.28317892 3.84953676 1.06643637 6.94738135 1 11 C0.01 11.33 -0.98 11.66 -2 12 C-2 8.7 -2 5.4 -2 2 C-2.66 1.67 -3.32 1.34 -4 1 C-2 0 -2 0 0 0 Z " fill="#656C75" transform="translate(124,324)"/>
<path d="M0 0 C4.29 0 8.58 0 13 0 C13 0.66 13 1.32 13 2 C10.16443413 3.41778293 8.0091294 2.86257622 4.875 2.5625 C3.77929688 2.46066406 2.68359375 2.35882813 1.5546875 2.25390625 C0.29011719 2.12822266 0.29011719 2.12822266 -1 2 C-0.67 1.34 -0.34 0.68 0 0 Z " fill="#3E4750" transform="translate(256,165)"/>
</svg>
