<?xml version="1.0" encoding="UTF-8"?>
<svg version="1.1" xmlns="http://www.w3.org/2000/svg" width="512" height="512">
<path d="M0 0 C4.15531301 3.49737147 8.17667911 7.05202468 12.01780701 10.89755249 C12.70056461 11.57902845 12.70056461 11.57902845 13.39711529 12.27427161 C14.89789839 13.77342813 16.39511618 15.27609207 17.89233398 16.77880859 C18.97688155 17.86363866 20.06165022 18.94824772 21.1466217 20.03265381 C24.07397637 22.95972299 26.99824972 25.88985276 29.92195773 28.82056379 C32.9844251 31.88930622 36.04974749 34.95519417 39.11476135 38.02139282 C44.91059045 43.82032303 50.70386692 49.62179638 56.49621874 55.4241997 C63.09402938 62.03320945 69.6946988 68.6393609 76.29560363 75.24528003 C89.86690733 88.82702048 103.43463714 102.412326 117 116 C115.45335905 119.67769904 113.22760442 122.02595723 110.42344856 124.83661366 C109.95297138 125.31089651 109.48249419 125.78517937 108.99776012 126.27383444 C107.41403869 127.86789343 105.82327145 129.4547287 104.23245239 131.04170227 C103.08646246 132.19214338 101.94090454 133.34301495 100.79574287 134.49428052 C97.64287541 137.66135195 94.48374996 140.82211627 91.3235538 143.98187268 C87.91843336 147.38863913 84.51903119 150.80110347 81.11883545 154.21278381 C73.68223404 161.67224741 66.23816323 169.12422737 58.7926507 176.57479501 C54.14702692 181.22367319 49.50303839 185.87418247 44.8594017 190.52504539 C32.01053422 203.39347729 19.16008955 216.26032814 6.30288887 229.12043476 C5.47996943 229.94354177 4.65704999 230.76664878 3.8091936 231.61469842 C2.14084363 233.28341465 0.47249239 234.95212959 -1.19586013 236.62084327 C-2.0240632 237.44922915 -2.85226627 238.27761503 -3.70556641 239.13110352 C-4.53477707 239.96049473 -5.36398773 240.78988594 -6.21832599 241.64441022 C-19.66897544 255.09860505 -33.10783473 268.56451021 -46.54156326 282.03559826 C-60.32293382 295.85498931 -74.11358221 309.66506284 -87.91382515 323.4656083 C-95.66652467 331.21889366 -103.41518247 338.97612539 -111.15374374 346.74352455 C-117.7398329 353.35404351 -124.33436002 359.95599438 -130.94022284 366.54675613 C-134.31310917 369.91244008 -137.68174875 373.28211335 -141.03973007 376.66267395 C-144.10957277 379.75296113 -147.19056776 382.83163828 -150.28113057 385.9011996 C-151.40126204 387.01780825 -152.51712097 388.13872151 -153.6283835 389.26415697 C-155.13166665 390.78538052 -156.64929872 392.29060618 -158.17176628 393.79259205 C-159.43460876 395.05665621 -159.43460876 395.05665621 -160.72296321 396.34625703 C-163 398 -163 398 -165.15972888 397.88192725 C-167.89404132 396.57154172 -169.67105371 394.6967732 -171.80889893 392.55186462 C-172.27784159 392.08548523 -172.74678426 391.61910584 -173.22993731 391.13859373 C-174.80015827 389.57331595 -176.3594135 387.99755346 -177.91894531 386.42163086 C-179.04202936 385.29770066 -180.1657743 384.17443052 -181.29013062 383.05177307 C-184.3420053 380.00076021 -187.38453277 376.94057652 -190.42549229 373.87868953 C-193.60453485 370.68091145 -196.79205749 367.49160954 -199.97869873 364.30140686 C-206.01239261 358.25838334 -212.03839749 352.20775217 -218.061692 346.15436512 C-224.91910005 339.26344171 -231.78501398 332.38102032 -238.6516633 325.49930751 C-252.77727512 311.34232584 -266.89214603 297.17467651 -281 283 C-279.45141416 279.31076264 -277.21297509 276.96435359 -274.39665794 274.15056229 C-273.923294 273.67489065 -273.44993005 273.19921902 -272.96222174 272.70913309 C-271.36872167 271.11032308 -269.76816551 269.51876934 -268.16757202 267.92706299 C-267.01459924 266.77321835 -265.86206594 265.61893443 -264.70993578 264.46424842 C-261.53790278 261.28773409 -258.35965157 258.11750519 -255.18037462 254.94824338 C-251.75481706 251.53130669 -248.33502467 248.10860874 -244.91453552 244.68659973 C-238.9859157 238.7569302 -233.05363919 232.83093934 -227.11887741 226.9074173 C-218.53816855 218.34294874 -209.96297456 209.77297595 -201.38912518 201.20164105 C-187.47914525 187.29604053 -173.564703 173.39491406 -159.64746094 159.49658203 C-146.12656627 145.9940398 -132.6077696 132.48940275 -119.09179688 118.98193359 C-118.25895056 118.14961272 -117.42610424 117.31729185 -116.56802015 116.45974913 C-112.38997116 112.28431018 -108.21196347 108.10882992 -104.03397632 103.93332911 C-69.36238462 69.28247757 -34.68355324 34.63887842 0 0 Z " fill="#000000" transform="translate(345,50)"/>
<path d="M0 0 C1.30904297 -0.01740234 1.30904297 -0.01740234 2.64453125 -0.03515625 C27.96687643 0.07738751 44.17360258 20.84547223 60.68334961 37.31811523 C63.31763322 39.94261416 65.96241445 42.55623659 68.60742188 45.16992188 C70.307949 46.86392372 72.00784102 48.55856341 73.70703125 50.25390625 C74.48633499 51.02086319 75.26563873 51.78782013 76.06855774 52.57801819 C88.66984502 65.23030377 94.89614451 77.14232758 95.0625 95 C95.07724365 96.04873291 95.0919873 97.09746582 95.10717773 98.17797852 C94.89102026 114.67195896 86.82514409 126.62126591 75.44140625 137.78515625 C74.33615959 138.8569999 73.23068816 139.9286118 72.125 141 C70.9951604 142.10972761 69.86624679 143.22039883 68.73828125 144.33203125 C66.00272532 147.02400206 63.25501243 149.70295065 60.5 152.375 C56.82728195 150.83092568 54.49138795 148.61306501 51.69110107 145.80661011 C51.22215841 145.33937629 50.75321574 144.87214247 50.27006269 144.39075005 C48.70226963 142.82624735 47.14172509 141.25471104 45.58105469 139.68310547 C44.45775589 138.55924246 43.33401637 137.43581979 42.20986938 136.31280518 C39.16025431 133.26376422 36.1168476 130.20859346 33.07450771 127.15229559 C29.89368113 123.95897165 26.70719484 120.77130564 23.52130127 117.58303833 C17.4896205 111.54513988 11.46305637 105.50216099 5.438308 99.45734608 C-1.42107002 92.57561807 -8.28612381 85.6995641 -15.1516633 78.82398391 C-29.27410591 64.68063276 -43.38939567 50.53016138 -57.5 36.375 C-56.54712104 35.2584318 -55.5935455 34.14245803 -54.63967896 33.0267334 C-53.84325831 32.09445042 -53.84325831 32.09445042 -53.03074837 31.14333344 C-38.37719654 14.21542667 -23.57416425 -0.31339362 0 0 Z " fill="#000000" transform="translate(417.5,-0.375)"/>
<path d="M0 0 C3.49801422 1.49854217 5.75157144 3.50459456 8.42926025 6.18875122 C9.75011627 7.50548325 9.75011627 7.50548325 11.09765625 8.84881592 C12.06552278 9.82376013 13.033293 10.79879996 14.00097656 11.77392578 C15.02575442 12.79926791 16.05097312 13.82416958 17.07659912 14.84866333 C19.85762918 17.62911951 22.63244911 20.41569956 25.40620136 23.20341349 C28.30675356 26.11646708 31.21296944 29.02385896 34.11859131 31.93185425 C39.61903401 37.43851344 45.11435852 42.9502511 50.60786605 48.46382797 C56.86265855 54.74097416 63.12313014 61.01244316 69.38408709 67.28343987 C82.26239093 80.18264956 95.13353955 93.0889775 108 106 C106.46709999 109.06580003 104.18954967 109.1456657 100.98429871 110.21463013 C100.34923238 110.4286837 99.71416605 110.64273727 99.05985528 110.86327732 C96.91878318 111.58286254 94.7742773 112.29160979 92.62963867 113.00048828 C91.09884494 113.51246448 89.56826605 114.02508344 88.03788757 114.53829956 C83.87069748 115.9335562 79.70040186 117.31930543 75.52939391 118.70310068 C71.17082005 120.15051216 66.81475985 121.60545208 62.45832825 123.05929565 C55.13860409 125.50071278 47.81685888 127.93599026 40.49389648 130.36767578 C32.02350127 133.18046442 23.55634859 136.00284251 15.09087962 138.83041966 C6.95608602 141.54730363 -1.18095059 144.25740781 -9.31903648 146.96441269 C-12.78579484 148.11770586 -16.25174819 149.27337349 -19.71708107 150.43094254 C-23.79865785 151.79401973 -27.8821622 153.15115683 -31.96723747 154.5037117 C-33.46754418 155.00151589 -34.96717356 155.50136676 -36.46607208 156.00339508 C-38.51003485 156.68760625 -40.55630779 157.36439852 -42.60334778 158.03933716 C-43.74875943 158.4202054 -44.89417109 158.80107365 -46.07429218 159.19348335 C-49 160 -49 160 -53 160 C-50.75930554 151.30304948 -48.02741818 142.80221738 -45.17724609 134.28881836 C-44.69542092 132.84226758 -44.21385588 131.39563013 -43.73252869 129.94891357 C-42.43583045 126.05401026 -41.1354242 122.16035456 -39.83422422 118.26695323 C-38.47006688 114.18331553 -37.1091036 110.09861345 -35.74771118 106.01405334 C-33.46503869 99.16696933 -31.18005392 92.32066053 -28.89355469 85.47485352 C-26.2488639 77.55655791 -23.60734181 69.63721092 -20.96760309 61.71726316 C-18.1539771 53.27571073 -15.33807054 44.83492036 -12.52148485 36.39435506 C-11.71021881 33.96268957 -10.89938005 31.53088196 -10.08863449 29.09904289 C-8.81780454 25.28755508 -7.54545086 21.47657928 -6.27189827 17.66600037 C-5.80415322 16.26569272 -5.33691957 14.86521414 -4.87022591 13.46455574 C-4.23497019 11.55829997 -3.59769096 9.65271888 -2.96029663 7.74717712 C-2.42550973 6.14533019 -2.42550973 6.14533019 -1.87991905 4.5111227 C-1 2 -1 2 0 0 Z " fill="#000000" transform="translate(53,352)"/>
</svg>
