<?xml version="1.0" encoding="UTF-8"?>
<svg version="1.1" xmlns="http://www.w3.org/2000/svg" width="512" height="512">
<path d="M0 0 C0.74698179 -0.00265183 1.49396358 -0.00530365 2.26358119 -0.00803584 C4.78067094 -0.0157295 7.29771192 -0.01628804 9.81481266 -0.01688576 C11.63216259 -0.02090035 13.44951163 -0.02533857 15.26685959 -0.03016531 C20.27221919 -0.04213726 25.27756915 -0.04778072 30.28294027 -0.05234647 C35.6771768 -0.05830028 41.07140178 -0.06991075 46.46563053 -0.08063698 C59.4993609 -0.10516713 72.5330951 -0.11978959 85.56684145 -0.13269705 C89.24805315 -0.13640871 92.92926446 -0.14038197 96.61047578 -0.14444971 C119.46869421 -0.16968734 142.32691323 -0.19174121 165.18514252 -0.20417786 C170.48064965 -0.20710757 175.77615677 -0.21006923 181.07166386 -0.21308327 C182.38784354 -0.21382932 183.70402323 -0.21457537 185.06008715 -0.21534403 C206.37770006 -0.22799552 227.69521259 -0.26121535 249.01278996 -0.3028851 C270.89793009 -0.34531362 292.78302751 -0.36887401 314.66820866 -0.37409842 C326.95633484 -0.37751162 339.24433065 -0.38925614 351.53241634 -0.42220116 C361.99859391 -0.45021543 372.46461439 -0.4611949 382.93082654 -0.4500057 C388.26916785 -0.44482253 393.60718024 -0.44768392 398.94547367 -0.47247124 C403.83808051 -0.494999 408.73012283 -0.49419628 413.6227398 -0.47526737 C415.387316 -0.47247231 417.15193077 -0.47803823 418.91644507 -0.4930803 C434.12890039 -0.61477361 446.35377789 2.09537337 457.64124393 13.13701439 C461.92738827 17.90453995 465.16926411 23.22673536 467.64124393 29.13701439 C467.98345289 29.93366414 468.32566185 30.73031389 468.67824078 31.55110455 C470.02916055 36.58148942 469.92354421 41.37917944 469.90866947 46.56625938 C469.91320058 47.72335358 469.9177317 48.88044778 469.92240012 50.07260543 C469.93285792 53.2759028 469.93437207 56.4790587 469.93201137 59.68236768 C469.93160267 63.14059893 469.94264745 66.59879689 469.9521265 70.05701256 C469.96872711 76.82974247 469.97423565 83.60243756 469.97535126 90.37518611 C469.97630233 95.88267712 469.98041558 101.39015666 469.98675251 106.89764404 C470.00436359 122.52233675 470.01359177 138.147002 470.01209156 153.7717047 C470.01197169 155.03474125 470.01197169 155.03474125 470.0118494 156.32329369 C470.01176764 157.16634986 470.01168588 158.00940603 470.01160164 158.87800936 C470.01078913 172.53401453 470.02991826 186.1899093 470.05812614 199.84588256 C470.08688049 213.87749746 470.10066498 227.90905858 470.09893858 241.94070369 C470.09827549 249.81442763 470.10373233 257.68803589 470.12529469 265.56173325 C470.14354026 272.26713987 470.14782635 278.97237838 470.13427584 285.67779913 C470.12776265 289.09594604 470.12756847 292.51377076 470.14498234 295.93188667 C470.16044923 299.64582748 470.15111556 303.35892808 470.13572025 307.07285118 C470.14600738 308.14174652 470.15629451 309.21064186 470.16689336 310.31192797 C470.05615274 322.44223297 465.67064553 332.67315679 457.41858768 341.51982689 C448.68969738 349.90288161 439.34804822 354.29482589 427.28248787 354.27402878 C426.53550608 354.2766806 425.78852429 354.27933243 425.01890668 354.28206462 C422.50181692 354.28975827 419.98477595 354.29031682 417.46767521 354.29091454 C415.65032528 354.29492913 413.83297624 354.29936734 412.01562828 354.30419409 C407.01026868 354.31616603 402.00491872 354.3218095 396.9995476 354.32637525 C391.60531107 354.33232905 386.21108609 354.34393953 380.81685734 354.35466576 C367.78312697 354.37919591 354.74939277 354.39381837 341.71564642 354.40672582 C338.03443472 354.41043749 334.35322341 354.41441075 330.67201209 354.41847849 C307.81379366 354.44371612 284.95557464 354.46576999 262.09734535 354.47820663 C256.80183822 354.48113635 251.5063311 354.48409801 246.21082401 354.48711205 C244.23655448 354.48823112 244.23655448 354.48823112 242.22240072 354.4893728 C220.90478781 354.5020243 199.58727528 354.53524413 178.26969791 354.57691388 C156.38455778 354.61934239 134.49946036 354.64290279 112.61427921 354.6481272 C100.32615303 354.6515404 88.03815722 354.66328492 75.75007153 354.69622993 C65.28389396 354.72424421 54.81787348 354.73522368 44.35166133 354.72403447 C39.01332002 354.71885131 33.67530763 354.7217127 28.3370142 354.74650002 C23.44440736 354.76902778 18.55236504 354.76822506 13.65974807 354.74929614 C11.89517187 354.74650109 10.1305571 354.75206701 8.3660428 354.76710908 C-7.57667813 354.89464421 -19.48180238 351.5541099 -31.28844357 340.29717064 C-38.00558816 333.24849316 -42.47246013 324.05086092 -42.49297714 314.24021626 C-42.49743499 313.24975141 -42.50189283 312.25928656 -42.50648576 311.23880762 C-42.5063014 310.15293299 -42.50611704 309.06705835 -42.50592709 307.94827843 C-42.50960377 306.79289308 -42.51328046 305.63750774 -42.51706856 304.44711071 C-42.52618631 301.23933147 -42.53080311 298.03158231 -42.53345788 294.82379234 C-42.53736512 291.36417083 -42.54694323 287.90456408 -42.55567074 284.44495201 C-42.57542426 276.08906299 -42.58550038 267.73317279 -42.59439853 259.37726626 C-42.59878364 255.44022311 -42.60414991 251.50318131 -42.6093874 247.56613922 C-42.62639929 234.47456803 -42.6408925 221.38299767 -42.64813614 208.29141712 C-42.65004597 204.89481607 -42.65196631 201.49821502 -42.65392208 198.101614 C-42.65440582 197.25742682 -42.65488956 196.41323965 -42.65538796 195.54347105 C-42.66368465 181.87441116 -42.68901563 168.20543889 -42.72150276 154.53641724 C-42.75460029 140.49583165 -42.77258737 126.45529055 -42.77578038 112.41466576 C-42.77794309 104.53419725 -42.78665651 96.65385648 -42.81224155 88.77342606 C-42.83398548 82.06066021 -42.84198093 75.34805312 -42.83227477 68.63525604 C-42.82774056 65.21306606 -42.82956429 61.79120337 -42.84903622 58.36905861 C-42.86675219 54.65064317 -42.85964906 50.93305224 -42.84650326 47.21463585 C-42.8574725 46.14437627 -42.86844175 45.07411669 -42.8797434 43.971425 C-42.77651043 31.83596656 -38.39147547 21.60442886 -30.13609982 12.75420189 C-21.40720951 4.37114717 -12.06556035 -0.02079711 0 0 Z " fill="#FECD34" transform="translate(42.35875606536865,78.86298561096191)"/>
<path d="M0 0 C0.74698179 -0.00265183 1.49396358 -0.00530365 2.26358119 -0.00803584 C4.78067094 -0.0157295 7.29771192 -0.01628804 9.81481266 -0.01688576 C11.63216259 -0.02090035 13.44951163 -0.02533857 15.26685959 -0.03016531 C20.27221919 -0.04213726 25.27756915 -0.04778072 30.28294027 -0.05234647 C35.6771768 -0.05830028 41.07140178 -0.06991075 46.46563053 -0.08063698 C59.4993609 -0.10516713 72.5330951 -0.11978959 85.56684145 -0.13269705 C89.24805315 -0.13640871 92.92926446 -0.14038197 96.61047578 -0.14444971 C119.46869421 -0.16968734 142.32691323 -0.19174121 165.18514252 -0.20417786 C170.48064965 -0.20710757 175.77615677 -0.21006923 181.07166386 -0.21308327 C182.38784354 -0.21382932 183.70402323 -0.21457537 185.06008715 -0.21534403 C206.37770006 -0.22799552 227.69521259 -0.26121535 249.01278996 -0.3028851 C270.89793009 -0.34531362 292.78302751 -0.36887401 314.66820866 -0.37409842 C326.95633484 -0.37751162 339.24433065 -0.38925614 351.53241634 -0.42220116 C361.99859391 -0.45021543 372.46461439 -0.4611949 382.93082654 -0.4500057 C388.26916785 -0.44482253 393.60718024 -0.44768392 398.94547367 -0.47247124 C403.83808051 -0.494999 408.73012283 -0.49419628 413.6227398 -0.47526737 C415.387316 -0.47247231 417.15193077 -0.47803823 418.91644507 -0.4930803 C434.12890039 -0.61477361 446.35377789 2.09537337 457.64124393 13.13701439 C488.46890382 47.42696005 469.64124393 120.85352521 469.64124393 149.13701439 C300.68124393 149.13701439 131.72124393 149.13701439 -42.35875607 149.13701439 C-42.35875607 25.85757678 -42.35875607 25.85757678 -30.13609982 12.75420189 C-21.40720951 4.37114717 -12.06556035 -0.02079711 0 0 Z " fill="#575B7A" transform="translate(42.35875606536865,78.86298561096191)"/>
<path d="M0 0 C0.74698179 -0.00265183 1.49396358 -0.00530365 2.26358119 -0.00803584 C4.78067094 -0.0157295 7.29771192 -0.01628804 9.81481266 -0.01688576 C11.63216259 -0.02090035 13.44951163 -0.02533857 15.26685959 -0.03016531 C20.27221919 -0.04213726 25.27756915 -0.04778072 30.28294027 -0.05234647 C35.6771768 -0.05830028 41.07140178 -0.06991075 46.46563053 -0.08063698 C59.4993609 -0.10516713 72.5330951 -0.11978959 85.56684145 -0.13269705 C89.24805315 -0.13640871 92.92926446 -0.14038197 96.61047578 -0.14444971 C119.46869421 -0.16968734 142.32691323 -0.19174121 165.18514252 -0.20417786 C170.48064965 -0.20710757 175.77615677 -0.21006923 181.07166386 -0.21308327 C182.38784354 -0.21382932 183.70402323 -0.21457537 185.06008715 -0.21534403 C206.37770006 -0.22799552 227.69521259 -0.26121535 249.01278996 -0.3028851 C270.89793009 -0.34531362 292.78302751 -0.36887401 314.66820866 -0.37409842 C326.95633484 -0.37751162 339.24433065 -0.38925614 351.53241634 -0.42220116 C361.99859391 -0.45021543 372.46461439 -0.4611949 382.93082654 -0.4500057 C388.26916785 -0.44482253 393.60718024 -0.44768392 398.94547367 -0.47247124 C403.83808051 -0.494999 408.73012283 -0.49419628 413.6227398 -0.47526737 C415.387316 -0.47247231 417.15193077 -0.47803823 418.91644507 -0.4930803 C434.12890039 -0.61477361 446.35377789 2.09537337 457.64124393 13.13701439 C467.74706072 24.37782572 469.64124393 34.78498988 469.64124393 50.13701439 C300.68124393 50.13701439 131.72124393 50.13701439 -42.35875607 50.13701439 C-42.35875607 34.26675117 -40.77095049 24.1553599 -30.13609982 12.75420189 C-21.40720951 4.37114717 -12.06556035 -0.02079711 0 0 Z " fill="#FECD33" transform="translate(42.35875606536865,78.86298561096191)"/>
<path d="M0 0 C1.01682358 -0.0087616 2.03364716 -0.01752319 3.08128357 -0.02655029 C6.4393899 -0.04854058 9.79617737 -0.03399189 13.15429688 -0.01708984 C15.48930107 -0.02045806 17.82430356 -0.02531072 20.15930176 -0.03158569 C25.05184632 -0.03895657 29.94393431 -0.02824394 34.83642578 -0.00488281 C41.10817048 0.02360431 47.37884539 0.0072016 53.65055084 -0.02274513 C58.47186343 -0.04081183 63.29292233 -0.03506278 68.11424255 -0.02210617 C70.42671332 -0.01877046 72.73920712 -0.02286497 75.051651 -0.03450394 C78.28375259 -0.04720156 81.51412126 -0.02784872 84.74609375 0 C86.18008766 -0.01518173 86.18008766 -0.01518173 87.64305115 -0.03067017 C92.01512541 0.03912946 94.26306357 0.23790733 97.96554565 2.72085571 C100.27780153 6.26786844 100.58070411 9.00573461 100.52001953 13.11181641 C100.52878113 13.84578644 100.53754272 14.57975647 100.54656982 15.33596802 C100.56850695 17.75274455 100.55403334 20.16767881 100.53710938 22.58447266 C100.5404792 24.26929067 100.5453332 25.95410631 100.55160522 27.63891602 C100.55896878 31.16625157 100.54828833 34.69295312 100.52490234 38.22021484 C100.49641414 42.7366126 100.51282099 47.25152477 100.54276466 51.76786804 C100.56085207 55.24584095 100.55507316 58.72346293 100.5421257 62.20144653 C100.53879564 63.86638567 100.54286474 65.5313569 100.55452347 67.19625854 C100.56725697 69.52573749 100.54782503 71.85282749 100.52001953 74.18212891 C100.53520126 75.20936569 100.53520126 75.20936569 100.5506897 76.25735474 C100.47396274 79.73544247 99.87294226 81.64713333 97.96653748 84.57507324 C93.54802921 87.53441784 89.94088967 87.33437987 84.73022461 87.26220703 C83.71179474 87.26775604 82.69336487 87.27330505 81.64407349 87.27902222 C78.28111578 87.29082335 74.91950389 87.2665389 71.55664062 87.24072266 C69.21924399 87.23901176 66.88184544 87.23907702 64.54444885 87.24084473 C59.6476911 87.23919126 54.75139102 87.22048607 49.85473633 87.18896484 C43.57412895 87.1492657 37.29412057 87.14492205 31.01341152 87.15242767 C26.18787638 87.15549507 21.36247624 87.14338534 16.53697395 87.126297 C14.22089548 87.11926003 11.9048017 87.11614331 9.58871269 87.11698914 C6.3543512 87.11519414 3.12071152 87.0938377 -0.11352539 87.06689453 C-1.55291222 87.07129044 -1.55291222 87.07129044 -3.02137756 87.07577515 C-3.9031366 87.06442535 -4.78489563 87.05307556 -5.69337463 87.04138184 C-6.45749948 87.03765312 -7.22162432 87.03392441 -8.00890446 87.0300827 C-10.73615079 86.53678173 -12.1113772 85.52419723 -14.12695312 83.64697266 C-15.30832852 80.10284648 -15.2831075 77.24283254 -15.31982422 73.50097656 C-15.32800171 72.77705215 -15.3361792 72.05312775 -15.34460449 71.30726624 C-15.36940817 68.91269756 -15.38595981 66.51818788 -15.40039062 64.12353516 C-15.4057143 63.30508495 -15.41103798 62.48663475 -15.41652298 61.64338303 C-15.44323026 57.31288337 -15.46261453 52.98241234 -15.47705078 48.65185547 C-15.49040144 45.06858863 -15.51827737 41.48588974 -15.55908203 37.90283203 C-15.60837161 33.57453688 -15.63316676 29.24675765 -15.64027786 24.91819382 C-15.64699312 23.2699457 -15.66222251 21.62170921 -15.68616867 19.97362137 C-15.71779376 17.66572261 -15.71786246 15.3598164 -15.71044922 13.05175781 C-15.71853607 11.73954254 -15.72662292 10.42732727 -15.73495483 9.0753479 C-15.12695312 5.64697266 -15.12695312 5.64697266 -13.22341919 2.72460938 C-8.81008388 -0.23660748 -5.20854135 -0.05514297 0 0 Z " fill="#FFFEFE" transform="translate(372.126953125,304.35302734375)"/>
<path d="M0 0 C6.6 0 13.2 0 20 0 C20.09271341 21.97523327 20.16403858 43.95041921 20.20724869 65.92580891 C20.22784782 76.13005049 20.2559177 86.33416809 20.30175781 96.53833008 C20.34170676 105.43536232 20.36745206 114.33230474 20.37635398 123.22942418 C20.3815551 127.93761678 20.39372416 132.64555247 20.42292023 137.35366249 C20.45021681 141.79172669 20.45841641 146.22942993 20.45243073 150.66757011 C20.45352463 152.29003999 20.46139335 153.91252285 20.4768219 155.53491974 C20.60718708 169.95991718 17.86516358 181.56810232 7.77734375 192.3828125 C-0.42272988 200.25800207 -9.6168897 205.15383878 -21.078125 205.09765625 C-22.23828125 205.09443359 -23.3984375 205.09121094 -24.59375 205.08789062 C-25.8003125 205.07951172 -27.006875 205.07113281 -28.25 205.0625 C-29.47203125 205.05798828 -30.6940625 205.05347656 -31.953125 205.04882812 C-34.96879946 205.03704815 -37.98437498 205.02059853 -41 205 C-41 204.67 -41 204.34 -41 204 C-40.32195312 203.91363281 -39.64390625 203.82726562 -38.9453125 203.73828125 C-26.02721572 201.78804226 -16.29626502 195.96643216 -8.14453125 185.65234375 C-0.73491558 174.40070515 -0.55284921 161.38867612 -0.56762695 148.37768555 C-0.55858918 146.75016547 -0.54825709 145.12265215 -0.53674316 143.49514771 C-0.50938343 139.11793948 -0.49991754 134.74086113 -0.49388909 130.36357856 C-0.48445015 125.77381317 -0.45824268 121.18414273 -0.43388367 116.59443665 C-0.39036589 107.92151821 -0.3617288 99.24861836 -0.33856028 90.57562429 C-0.31142929 80.69395631 -0.26752293 70.81238455 -0.22227156 60.93078554 C-0.12963635 40.62057395 -0.0584543 20.31033626 0 0 Z " fill="#E6B92F" transform="translate(492,228)"/>
<path d="M0 0 C1.44563563 -0.01169993 1.44563563 -0.01169993 2.92047602 -0.02363622 C6.15273989 -0.04359394 9.38383133 -0.02777624 12.61610413 -0.01205444 C14.93220712 -0.01882889 17.24830472 -0.02773105 19.56439209 -0.03860474 C25.85782057 -0.06142607 32.15083985 -0.05254936 38.44427562 -0.03670931 C45.02651125 -0.02406366 51.6087115 -0.03578686 58.19094849 -0.04364014 C69.95493981 -0.05432461 81.7187588 -0.03776982 93.48272026 -0.01234345 C104.14576351 0.00999014 114.80853456 0.00611957 125.47157288 -0.01693726 C137.85665571 -0.04370518 150.24156498 -0.0536491 162.6266728 -0.03887594 C169.18179425 -0.03107726 175.73672826 -0.03005141 182.29183769 -0.04655838 C188.45531832 -0.06099442 194.61828464 -0.05099633 200.78170967 -0.0220871 C203.04482799 -0.01547149 205.30798953 -0.01738196 207.5710907 -0.02840042 C210.658738 -0.04204814 213.74473357 -0.02494795 216.83227539 0 C217.72965154 -0.01115361 218.62702769 -0.02230722 219.55159706 -0.03379881 C223.7802243 0.03255457 226.65667915 0.32146622 230.0708704 2.9480381 C232.47962952 5.63491821 232.47962952 5.63491821 232.66712952 9.25991821 C231.47962952 12.63491821 231.47962952 12.63491821 229.50085449 14.32120514 C225.26917845 16.16125617 221.52112742 16.05636443 216.95252991 16.02932739 C215.98806726 16.0354185 215.0236046 16.0415096 214.02991581 16.04778528 C210.79558638 16.06444501 207.56164935 16.05963517 204.32728577 16.05484009 C202.00956309 16.06217859 199.69184407 16.07076418 197.37413025 16.08050537 C191.07673851 16.10275085 184.77947749 16.10565059 178.48205185 16.10375786 C173.22827647 16.10363832 167.97452895 16.11219552 162.7207613 16.12053537 C149.62075653 16.14088038 136.52082735 16.14191547 123.42081225 16.13472825 C112.04332884 16.12915074 100.66607047 16.14998777 89.28863966 16.18308872 C77.60523623 16.21681604 65.92195056 16.2315206 54.23849773 16.22737169 C47.67947404 16.22530069 41.12067453 16.23083813 34.56169128 16.25526428 C28.39578544 16.27746774 22.23034935 16.27570658 16.06444168 16.25533676 C13.79927839 16.25191561 11.53408386 16.25706302 9.26896286 16.27132034 C6.1809984 16.28941856 3.09464366 16.27683323 0.00672913 16.25637817 C-0.89355987 16.26889602 -1.79384886 16.28141387 -2.72141933 16.29431105 C-7.16820235 16.23098324 -8.95998207 16.07176703 -12.57675171 13.25232697 C-14.52037048 10.63491821 -14.52037048 10.63491821 -15.14537048 8.13491821 C-13.1462903 0.1385975 -6.90904368 -0.08566049 0 0 Z " fill="#FFFEFE" transform="translate(44.52037048339844,257.3650817871094)"/>
<path d="M0 0 C0.91330078 -0.0038269 1.82660156 -0.00765381 2.76757812 -0.01159668 C4.69402166 -0.01431253 6.62050228 -0.00697424 8.546875 0.00976562 C11.49042208 0.03118032 14.43152855 0.00995329 17.375 -0.015625 C19.25000537 -0.01298167 21.12500923 -0.00785657 23 0 C23.87720703 -0.00809692 24.75441406 -0.01619385 25.65820312 -0.02453613 C29.49308189 0.03411892 32.05383742 0.32024931 35.55664062 1.97680664 C38.48127216 5.82108048 38.1812667 9.22357738 38.09375 13.93359375 C38.09379028 14.84830948 38.09383057 15.76302521 38.09387207 16.70545959 C38.08851618 18.6379382 38.07093041 20.5704162 38.04199219 22.50268555 C38.00019545 25.45494455 38.0009193 28.40491734 38.0078125 31.35742188 C37.99731752 33.23699497 37.98437776 35.11655633 37.96875 36.99609375 C37.96854858 37.87643784 37.96834717 38.75678192 37.96813965 39.6638031 C37.87683229 44.41273919 37.61488615 47.6924483 34.5 51.53125 C32.25982799 52.65133601 30.98313265 52.68566329 28.49682617 52.73999023 C27.25995308 52.76892616 27.25995308 52.76892616 25.99809265 52.79844666 C22.22525398 52.85618322 18.4526059 52.90546145 14.67944336 52.9362793 C12.69000908 52.95787006 10.70067007 52.99198572 8.71166992 53.03881836 C5.84250503 53.10576475 2.97530411 53.13326793 0.10546875 53.15234375 C-0.78114944 53.18017441 -1.66776764 53.20800507 -2.58125305 53.23667908 C-7.08652748 53.22169187 -8.93634874 52.98027253 -12.55883789 50.09448242 C-15.34112548 45.98963614 -15.21972597 41.71169376 -15.1640625 36.8984375 C-15.16884613 35.98417999 -15.17362976 35.06992249 -15.17855835 34.12796021 C-15.18194884 32.20329051 -15.17280612 30.27856256 -15.15185547 28.35400391 C-15.12501484 25.40787836 -15.15166268 22.46554094 -15.18359375 19.51953125 C-15.18029071 17.64582493 -15.17388665 15.77212097 -15.1640625 13.8984375 C-15.17418365 13.01920624 -15.18430481 12.13997498 -15.19473267 11.23410034 C-15.1185613 7.26525569 -15.00543378 5.19354691 -12.55224609 1.97900391 C-8.30080785 -0.03755574 -4.65332757 -0.04295182 0 0 Z " fill="#FFFEFE" transform="translate(193.5,349.46875)"/>
<path d="M0 0 C0.91471573 -0.00145523 1.82943146 -0.00291046 2.77186584 -0.00440979 C4.70430692 -0.00275156 6.6367613 0.0088013 8.5690918 0.02954102 C11.52124398 0.05845748 14.47159567 0.05015601 17.42382812 0.03710938 C19.30339412 0.04334826 21.18295445 0.05174037 23.0625 0.0625 C24.38301613 0.05809654 24.38301613 0.05809654 25.73020935 0.05360413 C30.95802407 0.13372962 34.71423975 0.61267725 38.59765625 4.49609375 C38.73617767 7.54012585 38.8108796 10.55978086 38.8359375 13.60546875 C38.84400925 14.52442932 38.85208099 15.44338989 38.86039734 16.39019775 C38.87425731 18.34051618 38.88497087 20.29085906 38.89282227 22.24121094 C38.91000499 25.2198723 38.95386992 28.19741535 38.99804688 31.17578125 C39.00817603 33.06900224 39.01669144 34.96223268 39.0234375 36.85546875 C39.04094559 37.745224 39.05845367 38.63497925 39.07649231 39.55169678 C39.06188663 43.73168599 38.95976852 45.91719761 36.69604492 49.53613281 C33.85171478 52.19282652 32.34509464 52.62197589 28.56274414 52.65722656 C27.7317067 52.66683411 26.90066925 52.67644165 26.04444885 52.68634033 C24.69600136 52.69271515 24.69600136 52.69271515 23.3203125 52.69921875 C22.39802353 52.70491882 21.47573456 52.7106189 20.52549744 52.7164917 C18.57275543 52.72594623 16.61999743 52.73247747 14.66723633 52.73632812 C11.67566228 52.74604339 8.68477236 52.7770663 5.69335938 52.80859375 C3.79818117 52.81512274 1.90299805 52.82037362 0.0078125 52.82421875 C-1.33759865 52.84273895 -1.33759865 52.84273895 -2.71018982 52.8616333 C-3.54437943 52.8586322 -4.37856903 52.8556311 -5.23803711 52.85253906 C-5.97146835 52.85618469 -6.7048996 52.85983032 -7.46055603 52.86358643 C-9.98356154 52.38609548 -10.83677054 51.49806386 -12.40234375 49.49609375 C-13.30440067 46.789923 -13.5416399 45.14964636 -13.5793457 42.36352539 C-13.59218094 41.53579117 -13.60501617 40.70805695 -13.61824036 39.85523987 C-13.62562729 38.96457321 -13.63301422 38.07390656 -13.640625 37.15625 C-13.64869675 36.23774765 -13.65676849 35.3192453 -13.66508484 34.37290955 C-13.67891116 32.43034751 -13.68963981 30.48776132 -13.69750977 28.54516602 C-13.7147586 25.57326517 -13.75866132 22.60246666 -13.80273438 19.63085938 C-13.81285849 17.74349776 -13.82137547 15.8561267 -13.828125 13.96875 C-13.84563309 13.08010757 -13.86314117 12.19146515 -13.88117981 11.27589417 C-13.86822424 7.59640062 -13.78517719 5.17745153 -11.96337891 1.93505859 C-8.0461216 -0.26592468 -4.42220855 -0.05630188 0 0 Z " fill="#FFFEFE" transform="translate(121.40234375,349.50390625)"/>
<path d="M0 0 C0.91471573 -0.00145523 1.82943146 -0.00291046 2.77186584 -0.00440979 C4.70430692 -0.00275156 6.6367613 0.0088013 8.5690918 0.02954102 C11.52124398 0.05845748 14.47159567 0.05015601 17.42382812 0.03710938 C19.30339412 0.04334826 21.18295445 0.05174037 23.0625 0.0625 C24.38301613 0.05809654 24.38301613 0.05809654 25.73020935 0.05360413 C30.95802407 0.13372962 34.71423975 0.61267725 38.59765625 4.49609375 C38.7237212 7.46740641 38.78635967 10.41416547 38.80078125 13.38671875 C38.80648132 14.28348328 38.8121814 15.1802478 38.8180542 16.10418701 C38.82752145 18.00743423 38.83404499 19.91069797 38.83789062 21.81396484 C38.84756941 24.7200206 38.87856514 27.62536125 38.91015625 30.53125 C38.91668874 32.37890204 38.92193824 34.22655916 38.92578125 36.07421875 C38.93812805 36.94210022 38.95047485 37.80998169 38.9631958 38.7041626 C38.94575852 43.45260372 38.73041541 46.66961288 35.59765625 50.49609375 C32.53622743 52.53704629 31.90024129 52.74898322 28.44921875 52.77075195 C27.20277588 52.78504997 27.20277588 52.78504997 25.93115234 52.79963684 C25.03734863 52.79872543 24.14354492 52.79781403 23.22265625 52.796875 C22.30178223 52.80116013 21.3809082 52.80544525 20.43212891 52.80986023 C18.48535993 52.81560264 16.53856949 52.81610445 14.59179688 52.81176758 C11.60900418 52.80860578 8.62720142 52.8320741 5.64453125 52.85742188 C3.7539075 52.85969464 1.86328109 52.86039847 -0.02734375 52.859375 C-0.92114746 52.86858475 -1.81495117 52.87779449 -2.73583984 52.88728333 C-3.98228271 52.87794014 -3.98228271 52.87794014 -5.25390625 52.8684082 C-5.98432129 52.86903763 -6.71473633 52.86966705 -7.46728516 52.87031555 C-9.98158049 52.38407491 -10.83944214 51.49193711 -12.40234375 49.49609375 C-13.30440067 46.789923 -13.5416399 45.14964636 -13.5793457 42.36352539 C-13.59218094 41.53579117 -13.60501617 40.70805695 -13.61824036 39.85523987 C-13.62562729 38.96457321 -13.63301422 38.07390656 -13.640625 37.15625 C-13.64869675 36.23774765 -13.65676849 35.3192453 -13.66508484 34.37290955 C-13.67891116 32.43034751 -13.68963981 30.48776132 -13.69750977 28.54516602 C-13.7147586 25.57326517 -13.75866132 22.60246666 -13.80273438 19.63085938 C-13.81285849 17.74349776 -13.82137547 15.8561267 -13.828125 13.96875 C-13.84563309 13.08010757 -13.86314117 12.19146515 -13.88117981 11.27589417 C-13.86822424 7.59640062 -13.78517719 5.17745153 -11.96337891 1.93505859 C-8.0461216 -0.26592468 -4.42220855 -0.05630188 0 0 Z " fill="#FFFEFE" transform="translate(264.40234375,349.50390625)"/>
<path d="M0 0 C0.91471573 -0.00145523 1.82943146 -0.00291046 2.77186584 -0.00440979 C4.70430692 -0.00275156 6.6367613 0.0088013 8.5690918 0.02954102 C11.52124398 0.05845748 14.47159567 0.05015601 17.42382812 0.03710938 C19.30339412 0.04334826 21.18295445 0.05174037 23.0625 0.0625 C24.38301613 0.05809654 24.38301613 0.05809654 25.73020935 0.05360413 C30.95802407 0.13372962 34.71423975 0.61267725 38.59765625 4.49609375 C38.7237212 7.46740641 38.78635967 10.41416547 38.80078125 13.38671875 C38.80648132 14.28348328 38.8121814 15.1802478 38.8180542 16.10418701 C38.82752145 18.00743423 38.83404499 19.91069797 38.83789062 21.81396484 C38.84756941 24.7200206 38.87856514 27.62536125 38.91015625 30.53125 C38.91668874 32.37890204 38.92193824 34.22655916 38.92578125 36.07421875 C38.93812805 36.94210022 38.95047485 37.80998169 38.9631958 38.7041626 C38.94575852 43.45260372 38.73041541 46.66961288 35.59765625 50.49609375 C32.53622743 52.53704629 31.90024129 52.74898322 28.44921875 52.77075195 C27.20277588 52.78504997 27.20277588 52.78504997 25.93115234 52.79963684 C25.03734863 52.79872543 24.14354492 52.79781403 23.22265625 52.796875 C22.30178223 52.80116013 21.3809082 52.80544525 20.43212891 52.80986023 C18.48535993 52.81560264 16.53856949 52.81610445 14.59179688 52.81176758 C11.60900418 52.80860578 8.62720142 52.8320741 5.64453125 52.85742188 C3.7539075 52.85969464 1.86328109 52.86039847 -0.02734375 52.859375 C-0.92114746 52.86858475 -1.81495117 52.87779449 -2.73583984 52.88728333 C-3.98228271 52.87794014 -3.98228271 52.87794014 -5.25390625 52.8684082 C-5.98432129 52.86903763 -6.71473633 52.86966705 -7.46728516 52.87031555 C-9.98158049 52.38407491 -10.83944214 51.49193711 -12.40234375 49.49609375 C-13.30440067 46.789923 -13.5416399 45.14964636 -13.5793457 42.36352539 C-13.59218094 41.53579117 -13.60501617 40.70805695 -13.61824036 39.85523987 C-13.62562729 38.96457321 -13.63301422 38.07390656 -13.640625 37.15625 C-13.64869675 36.23774765 -13.65676849 35.3192453 -13.66508484 34.37290955 C-13.67891116 32.43034751 -13.68963981 30.48776132 -13.69750977 28.54516602 C-13.7147586 25.57326517 -13.75866132 22.60246666 -13.80273438 19.63085938 C-13.81285849 17.74349776 -13.82137547 15.8561267 -13.828125 13.96875 C-13.84563309 13.08010757 -13.86314117 12.19146515 -13.88117981 11.27589417 C-13.86822424 7.59640062 -13.78517719 5.17745153 -11.96337891 1.93505859 C-8.0461216 -0.26592468 -4.42220855 -0.05630188 0 0 Z " fill="#FFFEFE" transform="translate(50.40234375,349.50390625)"/>
<path d="M0 0 C1.91789841 -0.02114868 1.91789841 -0.02114868 3.87454224 -0.04272461 C5.28412221 -0.0330039 6.69369867 -0.02276311 8.10327148 -0.01205444 C9.59342517 -0.01883247 11.08357048 -0.02773665 12.57369995 -0.03860474 C16.61514225 -0.06138319 20.65594579 -0.05256814 24.69739914 -0.03670931 C28.92849183 -0.02404261 33.15953015 -0.03579255 37.390625 -0.04364014 C44.49578665 -0.05273449 51.60068837 -0.04075453 58.70581055 -0.01693726 C66.91814155 0.01027378 75.12985189 0.00145945 83.34216785 -0.02606928 C90.395421 -0.04876558 97.44848739 -0.05195794 104.50176525 -0.03887594 C108.71336731 -0.03108422 112.92467771 -0.03003195 117.13626099 -0.04655838 C121.09606069 -0.06101166 125.05506092 -0.0509668 129.01477432 -0.0220871 C130.46719155 -0.01548071 131.91967616 -0.01736647 133.3720665 -0.02840042 C135.3559299 -0.04208148 137.3399405 -0.02187527 139.32373047 0 C140.43352768 0.00188513 141.54332489 0.00377026 142.68675232 0.00571251 C146.64102176 0.84199972 148.15537162 2.53330884 150.66186523 5.63491821 C151.28686523 8.69741821 151.28686523 8.69741821 150.66186523 11.63491821 C146.97273623 15.33867716 144.49015281 16.13651489 139.32373047 16.14958191 C137.40583206 16.16866859 137.40583206 16.16866859 135.44918823 16.18814087 C134.03960996 16.18195897 132.63003349 16.17535299 131.22045898 16.16836548 C129.73030748 16.1754257 128.24016314 16.18417116 126.75003052 16.19447327 C122.70867981 16.21696438 118.66772077 16.21402853 114.62633133 16.2051518 C111.25144895 16.20004021 107.87664006 16.20733574 104.50176525 16.21462387 C96.54041807 16.23162158 88.57926257 16.2280579 80.61791992 16.21133423 C72.40560439 16.19440644 64.19382014 16.21025649 55.98156261 16.24255711 C48.92832348 16.26924763 41.87524978 16.27653069 34.82196522 16.26804203 C30.61034667 16.26311198 26.39904792 16.26533255 22.18746948 16.28582954 C18.22769636 16.3041789 14.2686881 16.29823803 10.30895615 16.27363014 C8.85652931 16.26862006 7.40404426 16.27211732 5.95166397 16.28477859 C3.96782675 16.3007038 1.98380399 16.28274049 0 16.2631073 C-1.10979721 16.26252099 -2.21959442 16.26193468 -3.36302185 16.2613306 C-7.30612332 15.43110745 -8.82155917 13.70821106 -11.33813477 10.63491821 C-11.96313477 8.13491821 -11.96313477 8.13491821 -11.33813477 5.63491821 C-7.75756293 1.26295444 -5.63252206 0.00956754 0 0 Z " fill="#FFFEFE" transform="translate(41.338134765625,311.3650817871094)"/>
<path d="M0 0 C6.6 0 13.2 0 20 0 C20 32.67 20 65.34 20 99 C13.4 99 6.8 99 0 99 C0 66.33 0 33.66 0 0 Z " fill="#4E526E" transform="translate(492,129)"/>
<path d="M0 0 C17.41953549 -0.69218108 31.01585151 -1.05417528 44.84765625 10.89453125 C52.31644513 18.20066049 58.65801233 28.22864414 59.1953125 38.8671875 C59.18407871 40.20328335 59.15838576 41.53927409 59.125 42.875 C59.08375 45.22625 59.0425 47.5775 59 50 C52.4 50 45.8 50 39 50 C38.814375 47.48375 38.62875 44.9675 38.4375 42.375 C37.13825352 29.70031893 31.65960505 18.52008721 22 10 C15.25362541 4.81750581 8.27943378 2.62174476 0 1 C0 0.67 0 0.34 0 0 Z " fill="#E6B92F" transform="translate(453,79)"/>
</svg>
