<?xml version="1.0" encoding="UTF-8"?>
<svg version="1.1" xmlns="http://www.w3.org/2000/svg" width="512" height="512">
<path d="M0 0 C0.721875 0.30550781 1.44375 0.61101562 2.1875 0.92578125 C17.33102334 8.36233289 29.44494217 24.31003949 41.19806194 36.096668 C43.79869203 38.70362515 46.40222727 41.30767797 49.00543213 43.9120636 C53.91570347 48.82542106 58.82342417 53.74131779 63.73019242 58.65817338 C69.32448671 64.26371415 74.92168131 69.86635519 80.51909971 75.46877611 C92.01592238 86.97600144 103.50916781 98.48679264 115 110 C115.01458252 109.21987549 115.02916504 108.43975098 115.04418945 107.63598633 C115.11964511 104.02771302 115.21597716 100.42026888 115.3125 96.8125 C115.33505859 95.58595703 115.35761719 94.35941406 115.38085938 93.09570312 C115.87017087 76.23669784 119.74550723 62.69724991 131.5234375 50.2890625 C143.37928146 39.33082186 156.47825059 36.06130576 172.21484375 36.62109375 C184.86705255 37.41077377 196.72629336 43.67415996 205.375 52.92578125 C214.93044278 65.12275269 218.17401632 77.5673743 218.1875 92.75 C218.19974609 93.49121094 218.21199219 94.23242188 218.22460938 94.99609375 C218.24328093 101.92946265 218.24328093 101.92946265 216 105 C213 107 213 107 210 107 C210 113.6 210 120.2 210 127 C211.65 127.33 213.3 127.66 215 128 C217.88443762 131.54287149 218.37496556 134.34780157 218.3742218 138.83978271 C218.38123611 140.00848404 218.38825043 141.17718536 218.39547729 142.38130188 C218.38783356 143.65507187 218.38018982 144.92884186 218.37231445 146.24121094 C218.37474406 147.60351336 218.37846503 148.965814 218.38337708 150.32810974 C218.39277733 154.02521351 218.38336226 157.72205203 218.37004495 161.41913509 C218.358695 165.3042649 218.3628414 169.18938229 218.36479187 173.07452393 C218.36567499 179.61141255 218.35460125 186.14819753 218.33618164 192.68505859 C218.31511996 200.20170449 218.31148135 207.71819746 218.3177436 215.23486686 C218.32348132 222.49797026 218.31773335 229.76102074 218.30657005 237.02411652 C218.30197107 240.09701789 218.30102968 243.16988638 218.3031559 246.24279022 C218.31883887 284.37401049 218.31883887 284.37401049 213.8125 300.5 C213.49104004 301.6741748 213.49104004 301.6741748 213.16308594 302.87207031 C203.7951353 335.77252497 181.14710967 362.56030223 155 384 C154.08089844 384.75796875 153.16179687 385.5159375 152.21484375 386.296875 C132.64337476 402.07891498 110.32247931 412.07085469 86 418 C85.30100586 418.17934082 84.60201172 418.35868164 83.88183594 418.54345703 C62.80048083 423.7696817 35.99675641 423.36583775 15 418 C13.7934375 417.70996094 13.7934375 417.70996094 12.5625 417.4140625 C-6.54476847 412.75234941 -34.48940209 404.42757828 -47 388 C-46.93595938 386.0147409 -46.86867645 384.02888206 -46.73828125 382.046875 C-47.2723703 377.86982037 -50.9223011 375.54890508 -54 373 C-54.66773438 372.41605469 -55.33546875 371.83210938 -56.0234375 371.23046875 C-57.66487315 369.80007482 -59.33020089 368.39717885 -61 367 C-61.66 367.33 -62.32 367.66 -63 368 C-65.91078366 368.60641326 -67.2037971 368.79339131 -70 368 C-72.21995354 366.32272148 -72.21995354 366.32272148 -74.61325073 364.08761597 C-75.93620462 362.85603571 -75.93620462 362.85603571 -77.28588486 361.59957504 C-81.63297284 357.43594128 -85.92896256 353.22680002 -90.18798828 348.97314453 C-91.16150744 348.00426978 -92.13521732 347.03558664 -93.10910034 346.06707764 C-95.72301074 343.46612802 -98.33372161 340.86199162 -100.94339609 338.25679255 C-102.58031305 336.62283 -104.2178055 334.98944625 -105.85546494 333.35622787 C-110.99846167 328.22685638 -116.1394887 323.09552297 -121.27761853 317.96127617 C-127.17443804 312.06894027 -133.07774939 306.18321199 -138.98677647 300.30311882 C-143.58009582 295.73150041 -148.16755203 291.15405125 -152.75069988 286.57223594 C-155.47694662 283.84703022 -158.20549693 281.12423764 -160.94021988 278.40753555 C-163.51282276 275.85156243 -166.07798318 273.28833715 -168.63792801 270.71968842 C-170.01013705 269.34635784 -171.38970227 267.98038932 -172.76959229 266.61477661 C-185.39271294 253.90776174 -193.2983706 242.16165714 -193.31469727 224.06445312 C-193.10519563 211.67782412 -188.57803471 202.00198289 -180.12109375 193 C-172.63140675 185.97936411 -163.77241048 182.62547674 -154 180 C-154.92941406 179.11699219 -155.85882813 178.23398437 -156.81640625 177.32421875 C-169.16155514 165.41597774 -178.50758752 153.7231206 -179.25 135.9375 C-179.07322228 125.43690344 -176.0123423 116.52950961 -170 108 C-169.38125 107.0925 -168.7625 106.185 -168.125 105.25 C-161.53481505 98.27215711 -152.50249011 92.83039769 -143 91 C-140.66699067 90.96111651 -138.33290199 90.9551365 -136 91 C-136.26554687 90.46632813 -136.53109375 89.93265625 -136.8046875 89.3828125 C-142.91774094 76.4873932 -143.23932678 64.5658457 -139 51 C-134.17520147 39.45655679 -126.25862172 31.39405608 -115 26 C-103.49340212 21.33754062 -90.7484799 21.59013729 -79.08984375 25.58203125 C-73.83727025 27.9925043 -69.49771411 31.41985234 -65 35 C-64.34 35.33 -63.68 35.66 -63 36 C-62.82984375 35.29875 -62.6596875 34.5975 -62.484375 33.875 C-59.0472346 20.41896097 -52.71262435 9.69220376 -40.4921875 2.25 C-27.84919288 -4.09131391 -13.19078698 -5.6106646 0 0 Z " fill="#F5ED85" transform="translate(283,91)"/>
<path d="M0 0 C0.721875 0.30550781 1.44375 0.61101562 2.1875 0.92578125 C17.33102334 8.36233289 29.44494217 24.31003949 41.19806194 36.096668 C43.79869203 38.70362515 46.40222727 41.30767797 49.00543213 43.9120636 C53.91570347 48.82542106 58.82342417 53.74131779 63.73019242 58.65817338 C69.32448671 64.26371415 74.92168131 69.86635519 80.51909971 75.46877611 C92.01592238 86.97600144 103.50916781 98.48679264 115 110 C115.01458252 109.21987549 115.02916504 108.43975098 115.04418945 107.63598633 C115.11964511 104.02771302 115.21597716 100.42026888 115.3125 96.8125 C115.33505859 95.58595703 115.35761719 94.35941406 115.38085938 93.09570312 C115.87017087 76.23669784 119.74550723 62.69724991 131.5234375 50.2890625 C143.37928146 39.33082186 156.47825059 36.06130576 172.21484375 36.62109375 C184.86705255 37.41077377 196.72629336 43.67415996 205.375 52.92578125 C214.93044278 65.12275269 218.17401632 77.5673743 218.1875 92.75 C218.19974609 93.49121094 218.21199219 94.23242188 218.22460938 94.99609375 C218.24328093 101.92946265 218.24328093 101.92946265 216 105 C213 107 213 107 209.5625 106.9375 C206 106 206 106 203.796875 104.09375 C201.19200319 99.60884028 201.62162434 95.65042591 201.6875 90.5625 C201.48530083 78.68354324 199.06026723 69.60432717 190.375 60.9375 C182.45472862 54.92480843 173.09244547 52.07761717 163.203125 52.51953125 C153.14924626 54.02761306 144.61060163 58.91542087 138.47265625 67.015625 C133.22101138 74.99203634 132.70870872 82.10155261 132.69140625 91.4765625 C132.66626088 93.94531501 132.64086266 96.41406496 132.61523438 98.8828125 C132.58642112 102.76496802 132.56239369 106.64707925 132.54370117 110.52929688 C132.5221049 114.28277688 132.48268649 118.03575506 132.44140625 121.7890625 C132.44129044 122.95265289 132.44117462 124.11624329 132.4410553 125.31509399 C132.42771652 126.39656708 132.41437775 127.47804016 132.40063477 128.59228516 C132.39556412 129.54237457 132.39049347 130.49246399 132.38526917 131.47134399 C131.90364215 134.63243018 131.42433131 135.88309542 129 138 C125.54151974 139.41184381 124.50388093 139.82958781 121 139 C116.63963534 135.97570224 113.0854698 132.18024045 109.41845703 128.37670898 C108.27292529 127.22208709 107.12536942 126.06947038 105.97595215 124.91871643 C103.50608896 122.43735183 101.05111453 119.94243214 98.60669327 117.43600273 C94.73611799 113.4674789 90.83403772 109.5309583 86.92721558 105.59815979 C80.7454922 99.36779593 74.58535867 93.11657408 68.43412006 86.85612398 C57.4353029 75.66267018 46.40789703 64.49749544 35.36141098 53.35109001 C31.48941665 49.44219766 27.62934909 45.52201122 23.7787745 41.59202087 C21.37208898 39.13929602 18.95709369 36.69487305 16.5401001 34.2523098 C15.42796473 33.1248059 14.31934015 31.99382552 13.21468735 30.85898972 C1.33345809 18.49554499 1.33345809 18.49554499 -14.45898438 13.75805664 C-24.75009661 13.71977816 -31.51424609 14.69137204 -39.16796875 21.9375 C-45.26325781 28.79957382 -46.78829094 35.52159878 -46.4140625 44.6015625 C-44.87874776 57.20273066 -36.45407128 64.7494933 -27.77954102 73.22290039 C-26.36443179 74.61504157 -24.94935873 76.00721952 -23.53431702 77.39942932 C-22.79573015 78.12416506 -22.05714329 78.84890079 -21.296175 79.59559822 C-17.35453858 83.4680909 -13.4297149 87.35758501 -9.50195312 91.24414062 C-4.51826659 96.17378664 0.47033034 101.09813806 5.47729492 106.00415039 C9.53999464 109.98581153 13.585449 113.98428191 17.61982918 117.994627 C19.15700649 119.51636765 20.70046059 121.03179499 22.25024223 122.5406971 C24.41170713 124.64672422 26.55047215 126.77352053 28.68530273 128.90649414 C29.32885712 129.52331055 29.9724115 130.14012695 30.63546753 130.77563477 C33.73004589 133.91392878 34.90742855 135.28718115 35.49232483 139.79100037 C35 143 35 143 33.4375 145.4375 C30.90041404 147.06383716 29.10870591 147.70637747 26.08289719 147.61563683 C21.09586305 146.14163135 17.58427156 141.43735545 14.07666016 137.80786133 C13.09670959 136.81938306 12.11517565 135.83247238 11.13218689 134.84701538 C9.021124 132.72400443 6.92154831 130.59045972 4.83018875 128.4480381 C1.5182487 125.05560797 -1.81875022 121.68858316 -5.15957642 118.32463074 C-11.04765211 112.38932387 -16.91399252 106.43289725 -22.77581787 100.47167969 C-31.58766683 91.5108586 -40.41704871 82.56738176 -49.26556742 73.64277095 C-52.57759182 70.30067623 -55.87843852 66.94804021 -59.17060447 63.58638632 C-61.22863897 61.48871558 -63.29503095 59.39942287 -65.36353874 57.3120842 C-66.76548854 55.89216529 -68.15715059 54.46211134 -69.54838562 53.0316925 C-77.47534118 45.06178067 -85.7461612 39.25294484 -97.3125 38.625 C-105.37260786 38.85803033 -112.45899914 42.38096064 -118.23828125 47.90234375 C-123.97771335 54.73621302 -125.82298415 62.05326017 -125.40625 70.8671875 C-123.55143983 85.17062744 -112.04679593 94.12046766 -102.2734375 103.74487305 C-100.85170749 105.15203465 -99.42998226 106.5592011 -98.00843906 107.96655142 C-96.50161984 109.4575656 -94.99360065 110.94735784 -93.48538208 112.43695641 C-90.32888251 115.55567007 -87.17920174 118.68121077 -84.03100586 121.80830383 C-83.22985934 122.60399427 -83.22985934 122.60399427 -82.41252804 123.41575927 C-81.32183089 124.49905335 -80.23114896 125.58236277 -79.14048195 126.6656872 C-71.82581498 133.93055993 -64.506715 141.19082248 -57.16943359 148.43286133 C-52.19716298 153.34069149 -47.23562011 158.2590902 -42.28618622 163.18995315 C-39.67341307 165.7920667 -37.0554753 168.38845968 -34.42425537 170.97192955 C-31.49697119 173.84625916 -28.59349509 176.74354437 -25.69140625 179.64331055 C-24.82082077 180.49075333 -23.95023529 181.33819611 -23.05326843 182.21131897 C-16.60113983 188.71916928 -16.60113983 188.71916928 -15.79663086 192.89729309 C-16 196 -16 196 -18.5625 199 C-22 201 -22 201 -24.68304443 201.12628174 C-29.80685957 199.38647567 -32.79656328 195.81525414 -36.50878906 191.97949219 C-37.34216293 191.13881699 -38.1755368 190.29814178 -39.03416443 189.43199158 C-41.31389621 187.12827076 -43.58227705 184.81400769 -45.84687901 182.49543285 C-48.2272949 180.0649977 -50.62402961 177.65078224 -53.01971436 175.2354126 C-59.62766674 168.56730585 -66.21045015 161.87453131 -72.79280853 155.18117523 C-78.81720564 149.05562604 -84.84692213 142.93557186 -90.89726996 136.83563924 C-93.27743283 134.43475688 -95.65196965 132.02881963 -98.01404572 129.61013031 C-100.65597867 126.90807441 -103.31306099 124.22177307 -105.97363281 121.53808594 C-107.12583565 120.3471357 -107.12583565 120.3471357 -108.30131531 119.13212585 C-115.36108609 112.06897915 -123.42154238 106.93797247 -133.625 106.6875 C-142.45861903 106.79392914 -148.82147405 109.9267574 -155.203125 115.9765625 C-161.48534857 123.05089252 -162.84950909 130.04059605 -162.46484375 139.39453125 C-160.25649118 156.52318187 -140.52266658 170.56676971 -128.94068527 182.01221848 C-126.09598237 184.82530972 -123.25617662 187.64324848 -120.41836548 190.46328735 C-119.44016967 191.43522583 -118.46197256 192.407163 -117.48377419 193.37909889 C-116.99478307 193.86497388 -116.50579195 194.35084887 -116.00198293 194.85144734 C-109.41394155 201.39669495 -102.82108862 207.93699578 -96.21435547 214.46337891 C-91.72811262 218.89515994 -87.25081084 223.33576311 -82.78354895 227.78667891 C-80.42775072 230.13312287 -78.06626245 232.47334193 -75.69636154 234.80555344 C-73.06380552 237.39723447 -70.44707837 240.00395203 -67.83349609 242.61474609 C-67.05020935 243.37848541 -66.26692261 244.14222473 -65.4598999 244.92910767 C-62.38555732 248.02698451 -60.28002855 250.16269546 -58.88150024 254.34439087 C-59 257 -59 257 -61.0625 259.875 C-64 262 -64 262 -66.8125 262.75 C-75.38532358 260.73286504 -82.26553692 250.78290722 -88.29444122 244.597332 C-91.17129227 241.65073875 -94.06573421 238.72146959 -96.95703125 235.7890625 C-100.61119877 232.08107599 -104.26004148 228.3682903 -107.89013672 224.63671875 C-110.84703356 221.59809891 -113.82125889 218.57740184 -116.8073349 215.56746292 C-117.93148931 214.42801832 -119.04937888 213.28235302 -120.1603775 212.13007736 C-128.32191067 203.67414069 -136.392573 197.1806417 -148.625 196.4375 C-156.5702773 196.86109548 -163.62949404 199.80116113 -169.46484375 205.22265625 C-175.26238555 211.93482297 -177.51301117 219.0629251 -177.30966663 227.81056309 C-176.19813492 239.25887519 -169.13826754 246.85209276 -161.2746582 254.50415039 C-160.18207001 255.59311852 -159.09103835 256.68365021 -158.00143433 257.77560425 C-155.06457287 260.71022139 -152.10683528 263.62292249 -149.14476418 266.53206182 C-146.04046261 269.58857202 -142.95665144 272.66561787 -139.87065125 275.74058533 C-134.03268711 281.55172386 -128.17754381 287.34521357 -122.31552047 293.13207096 C-113.70081166 301.63798535 -105.11347894 310.17146991 -96.52479076 318.70364285 C-95.25728023 319.96271703 -93.98975468 321.22177612 -92.72221375 322.4808197 C-91.79422219 323.4026586 -91.79422219 323.4026586 -90.84748334 324.34312052 C-87.17034262 327.99473887 -83.48860339 331.64164204 -79.80260241 335.28431618 C-77.51556776 337.54480774 -75.23033558 339.80711643 -72.94530869 342.0696373 C-71.88438576 343.11908948 -70.82256502 344.16763491 -69.75979042 345.21521187 C-68.3112105 346.64317706 -66.86594128 348.07449845 -65.42085266 349.5059967 C-64.61063817 350.30619767 -63.80042368 351.10639864 -62.96565723 351.93084812 C-60.48655166 354.54048212 -59.09656935 356.25963499 -58.625 359.875 C-59.10122831 363.84356926 -59.9899647 365.37586666 -63 368 C-66.125 368.875 -66.125 368.875 -70 368 C-72.20774651 366.29830742 -72.20774651 366.29830742 -74.60543823 364.07199097 C-75.48853542 363.25319332 -76.37163261 362.43439568 -77.28149033 361.59078598 C-81.63845799 357.43852165 -85.92951484 353.22624844 -90.18798828 348.97314453 C-91.16150744 348.00426978 -92.13521732 347.03558664 -93.10910034 346.06707764 C-95.72301074 343.46612802 -98.33372161 340.86199162 -100.94339609 338.25679255 C-102.58031305 336.62283 -104.2178055 334.98944625 -105.85546494 333.35622787 C-110.99846167 328.22685638 -116.1394887 323.09552297 -121.27761853 317.96127617 C-127.17443804 312.06894027 -133.07774939 306.18321199 -138.98677647 300.30311882 C-143.58009582 295.73150041 -148.16755203 291.15405125 -152.75069988 286.57223594 C-155.47694662 283.84703022 -158.20549693 281.12423764 -160.94021988 278.40753555 C-163.51282276 275.85156243 -166.07798318 273.28833715 -168.63792801 270.71968842 C-170.01013705 269.34635784 -171.38970227 267.98038932 -172.76959229 266.61477661 C-185.39271294 253.90776174 -193.2983706 242.16165714 -193.31469727 224.06445312 C-193.10519563 211.67782412 -188.57803471 202.00198289 -180.12109375 193 C-172.63140675 185.97936411 -163.77241048 182.62547674 -154 180 C-154.92941406 179.11699219 -155.85882813 178.23398437 -156.81640625 177.32421875 C-169.16155514 165.41597774 -178.50758752 153.7231206 -179.25 135.9375 C-179.07322228 125.43690344 -176.0123423 116.52950961 -170 108 C-169.38125 107.0925 -168.7625 106.185 -168.125 105.25 C-161.53481505 98.27215711 -152.50249011 92.83039769 -143 91 C-140.66699067 90.96111651 -138.33290199 90.9551365 -136 91 C-136.26554687 90.46632813 -136.53109375 89.93265625 -136.8046875 89.3828125 C-142.91774094 76.4873932 -143.23932678 64.5658457 -139 51 C-134.17520147 39.45655679 -126.25862172 31.39405608 -115 26 C-103.49340212 21.33754062 -90.7484799 21.59013729 -79.08984375 25.58203125 C-73.83727025 27.9925043 -69.49771411 31.41985234 -65 35 C-64.34 35.33 -63.68 35.66 -63 36 C-62.82984375 35.29875 -62.6596875 34.5975 -62.484375 33.875 C-59.0472346 20.41896097 -52.71262435 9.69220376 -40.4921875 2.25 C-27.84919288 -4.09131391 -13.19078698 -5.6106646 0 0 Z " fill="#010101" transform="translate(283,91)"/>
<path d="M0 0 C3.1359157 1.77984405 3.84102736 2.52308207 5 6 C5.09503625 7.86453622 5.13063009 9.73231956 5.13371277 11.59927368 C5.13797775 12.76522568 5.14224274 13.93117767 5.14663696 15.13246155 C5.14618378 16.41342209 5.14573059 17.69438263 5.14526367 19.01416016 C5.14825594 20.37616569 5.15165862 21.73817038 5.15544128 23.10017395 C5.16428892 26.80556956 5.16662001 30.51094207 5.16725707 34.21634722 C5.16796833 36.53768051 5.17010431 38.85900797 5.17275429 41.18033981 C5.18201747 49.29829021 5.18608886 57.41622418 5.18530273 65.53417969 C5.18470499 73.06553988 5.19519423 80.59682773 5.2110464 88.12816966 C5.22420649 94.61506979 5.22948295 101.10194657 5.22884732 107.58885992 C5.22859436 111.45315232 5.23133097 115.31738075 5.24202538 119.1816597 C5.34019118 157.29760099 5.34019118 157.29760099 0.8125 173.5 C0.49104004 174.6741748 0.49104004 174.6741748 0.16308594 175.87207031 C-9.2048647 208.77252497 -31.85289033 235.56030223 -58 257 C-58.91910156 257.75796875 -59.83820313 258.5159375 -60.78515625 259.296875 C-80.35662524 275.07891498 -102.67752069 285.07085469 -127 291 C-127.69899414 291.17934082 -128.39798828 291.35868164 -129.11816406 291.54345703 C-150.19951917 296.7696817 -177.00324359 296.36583775 -198 291 C-198.804375 290.80664062 -199.60875 290.61328125 -200.4375 290.4140625 C-220.53035165 285.51189086 -246.01048339 277.20800338 -260 261 C-260.63534983 256.97611774 -260.64970619 254.97455929 -258.375 251.5625 C-255.16763472 249.45239126 -253.83164156 249.50419167 -250 250 C-246.68725979 251.5918709 -243.6490433 253.57400859 -240.5625 255.5625 C-207.19770118 276.22179941 -167.88701367 283.49743432 -129.32275391 274.92578125 C-97.63716992 267.28723386 -73.82070599 249.94726557 -51.05883789 227.35400391 C-49.98061223 226.28730573 -48.89793284 225.22509015 -47.81079102 224.16748047 C-33.31385483 210.06129139 -23.23287115 194.04420577 -16.625 174.875 C-16.38628174 174.19606689 -16.14756348 173.51713379 -15.90161133 172.81762695 C-12.12493459 161.20622407 -11.70811706 149.10336104 -11.76049805 136.99584961 C-11.75938165 135.55363873 -11.7573184 134.11142832 -11.75439453 132.66921997 C-11.74971894 129.59572218 -11.75074253 126.52230113 -11.75617027 123.44880486 C-11.76385074 118.58614068 -11.75304933 113.72362081 -11.7389679 108.86097717 C-11.70141689 95.04508776 -11.68308091 81.22926841 -11.69458008 67.41333008 C-11.70079384 59.7584223 -11.6892425 52.10375159 -11.65813476 44.44890219 C-11.63949904 39.6163062 -11.64277705 34.78438305 -11.66230237 29.95179832 C-11.6691812 26.95120161 -11.65523598 23.95097082 -11.63535309 20.95044327 C-11.63030563 19.56089886 -11.63379141 18.17129299 -11.64648628 16.78179741 C-11.74669466 4.97483766 -11.74669466 4.97483766 -8.6521759 1.66627502 C-5.40940886 -0.37104902 -3.7635435 -0.64060315 0 0 Z " fill="#020201" transform="translate(496,218)"/>
<path d="M0 0 C5.88527833 3.47041574 10.41393897 6.81310468 14.02734375 12.78515625 C13.83203125 16.0625 13.83203125 16.0625 12.83984375 19.59765625 C10.73656885 28.08341265 10.51691618 36.20120071 10.58984375 44.91015625 C10.5925528 45.67251587 10.59526184 46.43487549 10.59805298 47.22033691 C10.68981148 64.30483185 13.13915732 79.92094245 19.171875 95.94921875 C20.02734375 98.78515625 20.02734375 98.78515625 19.02734375 101.78515625 C11.53053575 94.45121109 4.05324367 87.09796603 -3.40037823 79.72011948 C-6.86277014 76.29411334 -10.33130249 72.87486369 -13.81518555 69.47070312 C-17.18300537 66.17946495 -20.53296105 62.87095167 -23.87171364 59.55023956 C-25.14249578 58.29229821 -26.41937962 57.04048737 -27.70264244 55.79528046 C-36.59529788 47.15578142 -43.7216501 39.17354625 -44.53515625 26.16015625 C-44.07215139 17.6920411 -40.81104292 10.71056321 -35.04296875 4.54296875 C-24.769977 -4.17938273 -12.07943137 -5.69844397 0 0 Z " fill="#ECCF75" transform="translate(148.97265625,290.21484375)"/>
<path d="M0 0 C3.25110802 0.65745969 4.13084399 1.72912198 6.10546875 4.42578125 C7.38813007 7.88118488 8.28788123 11.42762062 9.23046875 14.98828125 C13.85220243 31.19245255 21.21393506 45.5274323 32.10546875 58.42578125 C33.36810547 59.93205078 33.36810547 59.93205078 34.65625 61.46875 C50.21325126 79.48376885 71.43774832 91.36814872 94.36328125 97.37109375 C97.48749733 98.57271532 99.03821912 99.80888643 101.10546875 102.42578125 C101.55924348 106.05597907 101.54246741 108.44896072 100.04296875 111.80078125 C97.28505819 114.11386753 94.60684972 114.44849905 91.10546875 114.42578125 C87.6824467 113.74872412 84.45400544 112.65058854 81.16796875 111.48828125 C80.2457251 111.16980225 79.32348145 110.85132324 78.37329102 110.52319336 C44.42368959 98.45098408 16.95240673 74.09292221 0.94799805 41.84643555 C-1.71767335 36.18350756 -3.82928302 30.35150793 -5.83203125 24.42578125 C-6.12682373 23.55356934 -6.42161621 22.68135742 -6.7253418 21.78271484 C-10.95335434 8.6878124 -10.95335434 8.6878124 -8.51953125 3.48828125 C-5.81594181 0.05680235 -4.42408418 0.24071002 0 0 Z " fill="#000000" transform="translate(20.89453125,370.57421875)"/>
<path d="M0 0 C2.43221064 0.61445588 4.8185934 1.31089086 7.21264648 2.06030273 C8.08034668 2.3280249 8.94804687 2.59574707 9.84204102 2.87158203 C29.08196353 9.05974776 45.74484193 20.10328688 60.65014648 33.56030273 C61.3887793 34.22674805 62.12741211 34.89319336 62.88842773 35.57983398 C79.31584434 51.2171544 97.44671194 78.51943365 98.84155273 101.74780273 C98.65014648 104.56030273 98.65014648 104.56030273 97.15014648 107.43530273 C94.1206033 110.01041444 92.49869441 110.14919828 88.65014648 110.22436523 C85.4641866 109.16652699 84.4509163 107.35295999 82.65014648 104.56030273 C81.54517216 101.84258519 80.72794027 99.06037929 79.90014648 96.24780273 C70.29906333 65.88762086 49.77668221 41.45201477 21.65405273 26.55639648 C12.09124621 21.68826886 2.08131035 18.15370411 -8.24829102 15.2956543 C-13.13591911 13.88120435 -13.13591911 13.88120435 -15.34985352 10.56030273 C-15.76453177 6.75908537 -15.8756266 4.451831 -13.91235352 1.12280273 C-9.61771258 -1.49588076 -4.84877106 -0.90728693 0 0 Z " fill="#000000" transform="translate(326.349853515625,0.439697265625)"/>
<path d="M0 0 C3.375 1 3.375 1 5.375 2.625 C6.8304263 6.08163746 6.13761849 8.34765558 5.375 12 C4.19295632 14.56017404 2.97993096 16.97637684 1.625 19.4375 C-4.47027777 31.01948506 -8.72279122 43.44253612 -8.86328125 56.6171875 C-8.871353 57.35139923 -8.87942474 58.08561096 -8.88774109 58.84207153 C-8.90153611 60.39696937 -8.91227864 61.95189691 -8.92016602 63.50683594 C-8.93159164 65.06780124 -8.95189085 66.62873046 -8.98168945 68.18945312 C-9.22148619 80.78213105 -7.71119713 91.62113175 -2.875 103.375 C-1.3841975 107.69832725 -0.80614604 111.47330168 -1.625 116 C-3.80029889 118.76095629 -5.17059175 118.93373213 -8.625 119.4375 C-12.50101742 118.87224746 -13.19535691 118.06730804 -15.625 115 C-17.06996855 111.8686109 -18.16167107 108.6448024 -19.25 105.375 C-19.5490625 104.52292969 -19.848125 103.67085938 -20.15625 102.79296875 C-26.52234885 84.17353803 -27.75446589 63.2489918 -23.625 44 C-23.41496338 42.9788208 -23.41496338 42.9788208 -23.20068359 41.93701172 C-21.09101936 31.96704086 -17.95545497 22.79354381 -13.625 13.5625 C-13.20992188 12.66853516 -12.79484375 11.77457031 -12.3671875 10.85351562 C-7.05322604 0 -7.05322604 0 0 0 Z " fill="#060503" transform="translate(378.625,260)"/>
<path d="M0 0 C1.41131252 2.44265629 2.16859406 4.34399507 3 7 C8.21805581 22.41052279 16.26357464 34.68247266 31 42.3125 C34.63521478 44.03493254 38.21632444 45.45551247 42.0625 46.625 C44.66690764 47.44595458 45.94617866 47.95433341 48.0625 49.75 C49.43456785 53.04296284 49.44081411 55.47348714 49 59 C47.5 61.4375 47.5 61.4375 45 63 C33.64292305 64.85843077 22.35020203 57.67917839 13.296875 51.44921875 C-0.19688207 41.69549435 -10.53076102 26.40003881 -14 10 C-14.62815884 3.82310469 -14.62815884 3.82310469 -12.1875 0.625 C-7.76390413 -2.66109979 -4.92506598 -2.11074256 0 0 Z " fill="#000000" transform="translate(78,368)"/>
<path d="M0 0 C11.84069289 4.2955635 20.90523642 10.20897779 29.87890625 19.015625 C30.50667969 19.61890625 31.13445312 20.2221875 31.78125 20.84375 C35.74289468 24.97607779 38.48751386 29.57304759 41.19140625 34.578125 C41.52930176 35.20348145 41.86719727 35.82883789 42.21533203 36.47314453 C45.67380795 43.1396852 47.61917949 49.48951368 46.87890625 57.015625 C45.31640625 59.515625 45.31640625 59.515625 42.87890625 61.015625 C39.37890625 61.515625 39.37890625 61.515625 35.87890625 61.015625 C31.9991071 58.00377327 30.64578944 54.3843194 29.06640625 49.890625 C23.52952369 35.28665641 14.08839898 24.89868602 -0.15234375 18.21875 C-2.9530281 17.08373582 -5.71065654 16.19527529 -8.62109375 15.390625 C-12.43489841 14.31760922 -15.00078485 13.58159905 -17.12109375 10.015625 C-17.71861785 7.20204066 -17.76424589 4.82367317 -17.12109375 2.015625 C-12.4803237 -4.12216765 -6.42873608 -2.02758635 0 0 Z " fill="#000000" transform="translate(324.12109375,53.984375)"/>
<path d="M0 0 C-0.13277344 0.65226563 -0.26554687 1.30453125 -0.40234375 1.9765625 C-0.57894531 2.85054687 -0.75554687 3.72453125 -0.9375 4.625 C-1.19853516 5.91277344 -1.19853516 5.91277344 -1.46484375 7.2265625 C-1.64144531 8.14179688 -1.81804687 9.05703125 -2 10 C-2.17329834 10.88445801 -2.34659668 11.76891602 -2.52514648 12.68017578 C-3.0620837 16.43404326 -3.14369934 20.10839625 -3.1328125 23.890625 C-3.13376923 24.63528015 -3.13472595 25.3799353 -3.13571167 26.14715576 C-3.13638927 27.71708257 -3.13456443 29.28701224 -3.13037109 30.85693359 C-3.12504734 33.22890716 -3.13031468 35.60068875 -3.13671875 37.97265625 C-3.13977279 45.71891678 -2.97392946 53.30131948 -2 61 C-11.42192437 53.38227391 -20.96555453 45.03150467 -22.40625 32.453125 C-22.8256755 22.00942999 -20.77190522 14.82685338 -13.6875 7.125 C-10.05525475 3.7556146 -5.14880112 0 0 0 Z " fill="#EACC74" transform="translate(142,198)"/>
</svg>
